<svg width="26" height="16" viewBox="0 0 26 16" fill="none" xmlns="http://www.w3.org/2000/svg">
<path fill-rule="evenodd" clip-rule="evenodd" d="M1.19249e-08 8C1.85108e-08 7.44772 0.447715 7 1 7L25 7C25.5523 7 26 7.44772 26 8C26 8.55228 25.5523 9 25 9L1 9C0.447715 9 5.33895e-09 8.55228 1.19249e-08 8Z" fill="black"/>
<path fill-rule="evenodd" clip-rule="evenodd" d="M17.2929 15.7071C16.9024 15.3166 16.9024 14.6834 17.2929 14.2929L23.5858 8L17.2929 1.70711C16.9024 1.31658 16.9024 0.683417 17.2929 0.292893C17.6834 -0.0976314 18.3166 -0.0976314 18.7071 0.292893L25.7071 7.29289C26.0976 7.68342 26.0976 8.31658 25.7071 8.70711L18.7071 15.7071C18.3166 16.0976 17.6834 16.0976 17.2929 15.7071Z" fill="black"/>
</svg>
