<svg width="65" height="65" viewBox="0 0 65 65" fill="none" xmlns="http://www.w3.org/2000/svg">
<path d="M38.4702 7.81768C37.7875 7.65328 37.1028 8.07286 36.9385 8.75434C36.7743 9.43595 37.1936 10.1217 37.8752 10.286C48.165 12.7666 55.3514 21.9013 55.3514 32.5001C55.3514 45.1004 45.1003 55.3515 32.4999 55.3515C19.8995 55.3515 9.64843 45.1004 9.64843 32.5001C9.64843 21.9017 16.8345 12.7669 27.1237 10.2862C27.8053 10.1217 28.2246 9.43595 28.0604 8.75447C27.896 8.07286 27.2099 7.65379 26.5287 7.81781C21.085 9.13037 16.153 12.2771 12.6413 16.6785C9.0223 21.2144 7.10938 26.6854 7.10938 32.5001C7.10938 46.5004 18.4996 57.8906 32.4999 57.8906C46.5002 57.8906 57.8904 46.5005 57.8904 32.5001C57.8904 26.6853 55.9775 21.2141 52.3582 16.6781C48.8464 12.2769 43.9142 9.13012 38.4702 7.81768Z" fill="black"/>
<path d="M64.2341 29.4464L62.7488 26.6754L62.9965 23.2497C63.2347 21.0539 62.3588 18.911 60.6506 17.5135L58.1852 15.4947L57.2154 12.5733C56.6723 10.3395 54.9758 8.54416 52.7747 7.87931L49.7315 6.95992L47.4009 4.26599C46.0219 2.64392 43.9347 1.80019 41.8173 2.00826L38.6587 2.32298L35.5538 0.765397C33.6404 -0.254667 31.3591 -0.255556 29.4454 0.76527L26.6745 2.25036L23.2489 2.00255C21.0523 1.76439 18.9101 2.64036 17.5127 4.34851L15.4938 6.81393L12.5725 7.78372C10.3386 8.32682 8.54325 10.0233 7.8784 12.2243L6.95914 15.2674L4.2652 17.5982C2.64326 18.9771 1.79902 21.064 2.00735 23.1818L2.32207 26.3404L0.764484 29.4453C-0.255707 31.3588 -0.256469 33.64 0.76423 35.5538L2.24945 38.3247L2.00164 41.7504C1.7636 43.9462 2.63945 46.089 4.34759 47.4866L6.81301 49.5054L7.78281 52.4269C8.32578 54.6606 10.0223 56.456 12.2235 57.1208L15.2665 58.0401L17.5973 60.7341C18.9763 62.3561 21.0627 63.2003 23.1809 62.9919L26.3393 62.6771L29.444 64.2345C30.4011 64.7448 31.4502 65.0001 32.4993 65.0001C33.5477 65.0001 34.5961 64.7452 35.5527 64.235L38.3237 62.7499L41.7492 62.9977C43.9449 63.2354 46.0878 62.3599 47.4856 60.6517L49.5044 58.1863L52.4259 57.2167C54.6595 56.6736 56.4548 54.9771 57.1196 52.776L58.039 49.7329L60.7331 47.4022C62.355 46.0232 63.1993 43.9364 62.9909 41.8184L62.6761 38.6601L64.2336 35.5552C65.2537 33.6416 65.2548 31.3602 64.2341 29.4464ZM61.9876 34.3704C61.9821 34.3808 61.9766 34.3912 61.9714 34.4016L60.2415 37.8503C60.1337 38.0651 60.0892 38.3062 60.1129 38.5455L60.4642 42.0684C60.5909 43.3566 60.0766 44.6274 59.0802 45.4747L56.0996 48.0533C55.9178 48.2106 55.7845 48.4162 55.715 48.6462L54.6891 52.0416C54.2802 53.3954 53.1693 54.4363 51.7899 54.7578C51.7522 54.7666 51.7149 54.7771 51.6782 54.7893L48.3553 55.8922C48.1272 55.968 47.9252 56.1068 47.773 56.2928L45.5209 59.0434C44.6655 60.089 43.3514 60.6229 42.0067 60.4716C41.9899 60.4697 41.973 60.4682 41.9564 60.4669L38.14 60.1909C37.8996 60.1736 37.6605 60.2247 37.4487 60.3382L34.3556 61.9959C33.1892 62.618 31.796 62.6154 30.6287 61.9887C30.6183 61.9832 30.6079 61.9778 30.5975 61.9726L27.1489 60.2427C26.9717 60.1538 26.7767 60.1079 26.5797 60.1079C26.5378 60.1079 26.4958 60.1099 26.4537 60.1141L22.9308 60.4651C21.6427 60.5923 20.3718 60.0775 19.5245 59.0812L16.9459 56.1006C16.7887 55.9188 16.583 55.7854 16.3529 55.716L12.9575 54.6903C11.6036 54.2814 10.5628 53.1704 10.2412 51.791C10.2325 51.7533 10.2219 51.7161 10.2098 51.6792L9.10692 48.3563C9.03126 48.1281 8.89237 47.9263 8.70639 47.774L5.95596 45.5218C4.91038 44.6664 4.37641 43.3527 4.52774 42.0077C4.52964 41.991 4.53117 41.9742 4.53244 41.9573L4.80843 38.1408C4.82583 37.9011 4.77466 37.6614 4.66117 37.4495L3.00329 34.3567C2.38123 33.1902 2.38389 31.7971 3.0104 30.6297C3.01599 30.6194 3.02132 30.609 3.02653 30.5986L4.75638 27.15C4.86416 26.9352 4.90873 26.6941 4.88486 26.4549L4.53383 22.9317C4.40714 21.6435 4.92142 20.3727 5.91787 19.5254L8.89847 16.9468C9.08026 16.7895 9.21356 16.5839 9.28313 16.3539L10.3089 12.9584C10.7178 11.6046 11.8288 10.5639 13.2083 10.2422C13.246 10.2334 13.2832 10.2229 13.32 10.2107L16.6427 9.10771C16.8708 9.03204 17.0727 8.89316 17.2249 8.70717L19.4773 5.95662C20.3327 4.91116 21.6468 4.37745 22.9913 4.52853C23.0081 4.53043 23.0249 4.53195 23.0416 4.53322L26.8581 4.80922C27.0971 4.82623 27.3374 4.77545 27.5493 4.66195L30.6423 3.00421C31.8086 2.38214 33.2019 2.38468 34.3691 3.01132C34.3794 3.01677 34.3898 3.02223 34.4003 3.02744L37.849 4.7573C38.0638 4.86508 38.3049 4.90977 38.5441 4.88577L42.0671 4.53475C43.3552 4.40779 44.6261 4.92233 45.4734 5.91879L48.052 8.89938C48.2092 9.08117 48.4149 9.21447 48.645 9.28404L52.0404 10.3098C53.3942 10.7187 54.435 11.8298 54.7567 13.2092C54.7654 13.2469 54.776 13.2841 54.7882 13.3209L55.8911 16.6436C55.9669 16.8717 56.1057 17.0736 56.2917 17.2258L59.0422 19.4781C60.0878 20.3335 60.6216 21.6471 60.4703 22.9921C60.4684 23.0089 60.4669 23.0257 60.4657 23.0425L60.1897 26.8591C60.1723 27.0988 60.2235 27.3385 60.3369 27.5504L61.9947 30.6433C62.6169 31.81 62.6143 33.2032 61.9876 34.3704Z" fill="black"/>
<path d="M26.9898 25.5827C26.7862 25.1536 26.3501 24.8562 25.8435 24.8562H19.1357C18.4346 24.8562 17.8662 25.4246 17.8662 26.1257V45.342C17.8662 46.0432 18.4346 46.6116 19.1357 46.6116H25.8435C26.3698 46.6116 26.8211 46.2915 27.0135 45.8354C27.9813 45.9712 28.9782 46.2464 30.0162 46.5339C31.5767 46.9659 33.1902 47.4126 34.8666 47.4126H42.1954C44.461 47.4126 46.2969 46.2115 47.1064 44.1995C47.5008 43.2191 47.5698 42.2017 47.3394 41.35C47.7609 40.9711 48.1171 40.4993 48.3865 39.9485C48.9325 38.8323 49.0416 37.5771 48.7321 36.52C49.309 35.9626 49.7393 35.2267 49.9643 34.359C50.1746 33.5478 50.171 32.7473 49.9838 32.0538C51.1289 31.3802 51.9002 30.1563 51.9002 28.7774C51.9002 27.6959 51.4791 26.6993 50.7143 25.9713C49.98 25.2723 49.002 24.8873 47.9605 24.8873L37.6302 24.8876C36.8454 23.903 36.6011 22.567 37.048 21.4916C37.9651 19.2844 37.9082 17.416 36.864 15.4338C36.0889 13.9625 34.0046 12.4977 32.2527 12.7478C31.1938 12.8992 30.4277 13.6475 30.203 14.75C30.1368 15.0744 30.1187 15.4248 30.0977 15.8305C30.0459 16.8314 29.9748 18.2022 29.1108 19.8576C28.5252 20.9797 28.3298 22.1338 28.1574 23.1521C27.9104 24.6108 27.7907 25.3135 26.9898 25.5827ZM20.4053 27.3952H24.574V44.0725H20.4053V27.3952ZM30.6609 23.5759C30.8088 22.7023 30.9616 21.7989 31.3618 21.0325C32.4819 18.8865 32.5767 17.0557 32.6335 15.9619C32.6486 15.6705 32.6628 15.3953 32.691 15.2569C32.6911 15.256 32.6914 15.255 32.6916 15.2541C33.132 15.2602 34.2158 15.8547 34.6176 16.6175C35.3131 17.9373 35.3362 18.9944 34.7034 20.5176C34.1328 21.891 34.1757 23.4846 34.7401 24.9015C34.1225 24.9875 33.6467 25.5162 33.6467 26.1575C33.6467 26.8585 34.2152 27.427 34.9162 27.427L47.9605 27.4266C48.3473 27.4266 48.7036 27.563 48.9636 27.8105C49.1451 27.983 49.3611 28.291 49.3611 28.7775C49.3611 29.4585 48.7369 30.0473 47.9979 30.0634L44.7303 30.1345C44.0294 30.1497 43.4734 30.7303 43.4887 31.4313C43.5038 32.123 44.069 32.6733 44.7574 32.6733C44.7667 32.6733 44.7761 32.6733 44.7856 32.673L47.507 32.6139C47.5957 32.8654 47.6419 33.3451 47.4551 33.8947C47.296 34.3622 46.8691 35.1462 45.795 35.1462C45.094 35.1462 44.5255 35.7146 44.5255 36.4157C44.5255 37.1169 45.094 37.6853 45.795 37.6853C45.9875 37.6853 46.1764 37.6733 46.3612 37.6498C46.377 38.0091 46.3031 38.43 46.1059 38.8329C45.8729 39.3092 45.4121 39.8772 44.541 39.8772C43.84 39.8772 43.2715 40.4456 43.2715 41.1468C43.2715 41.8479 43.84 42.4163 44.541 42.4163C44.6724 42.4163 44.8024 42.4104 44.9307 42.3989C44.9274 42.6425 44.8779 42.9471 44.7394 43.2802C44.5404 43.7593 43.8938 44.8736 42.1957 44.8736H34.8668C33.5355 44.8736 32.1552 44.4914 30.694 44.0869C29.5313 43.7649 28.339 43.4351 27.1133 43.2878V28.1521C29.9715 27.6342 30.3656 25.3203 30.6609 23.5759Z" fill="black"/>
<path d="M32.4994 9.64857C33.2006 9.64857 33.7689 9.08021 33.7689 8.37904C33.7689 7.67788 33.2006 7.10951 32.4994 7.10951H32.4985C31.7974 7.10951 31.2295 7.67788 31.2295 8.37904C31.2295 9.08021 31.7982 9.64857 32.4994 9.64857Z" fill="black"/>
</svg>
