<svg width="63" height="63" viewBox="0 0 63 63" fill="none" xmlns="http://www.w3.org/2000/svg">
<path d="M30.4844 55.875H32.5156V57.9062H30.4844V55.875Z" fill="black" stroke="black" stroke-width="0.3"/>
<path d="M48.0078 49.4541L49.4441 48.0178L50.8804 49.4541L49.4441 50.8904L48.0078 49.4541Z" fill="black" stroke="black" stroke-width="0.3"/>
<path d="M55.875 30.4844H57.9062V32.5156H55.875V30.4844Z" fill="black" stroke="black" stroke-width="0.3"/>
<path d="M60.9533 24.3902H53.7525C53.3595 23.1511 52.8618 21.9476 52.2646 20.7929L57.3539 15.7026C57.5443 15.5121 57.6513 15.2539 57.6513 14.9845C57.6513 14.7152 57.5443 14.457 57.3539 14.2665L53.0446 9.95822C50.2254 7.08478 46.8646 4.7985 43.1566 3.23146C39.4487 1.66442 35.4669 0.847698 31.4414 0.828473C27.4159 0.809247 23.4266 1.5879 19.7038 3.11945C15.981 4.651 12.5986 6.90508 9.752 9.75145C6.90543 12.5978 4.65111 15.9801 3.1193 19.7027C1.58748 23.4254 0.808545 27.4148 0.827486 31.4402C0.846426 35.4657 1.66287 39.4475 3.22965 43.1556C4.79642 46.8637 7.08247 50.2246 9.9557 53.0441L14.264 57.3534C14.4544 57.5438 14.7127 57.6507 14.982 57.6507C15.2513 57.6507 15.5096 57.5438 15.7001 57.3534L20.7904 52.2641C21.9461 52.861 23.1506 53.3584 24.3908 53.7509V60.9527C24.3908 61.2221 24.4978 61.4804 24.6882 61.6709C24.8787 61.8614 25.137 61.9684 25.4064 61.9684H37.5939C37.8633 61.9684 38.1216 61.8614 38.3121 61.6709C38.5025 61.4804 38.6095 61.2221 38.6095 60.9527V53.752C39.8487 53.3593 41.0521 52.8619 42.2069 52.2651L47.2972 57.3544C47.4876 57.5448 47.7459 57.6517 48.0152 57.6517C48.2845 57.6517 48.5428 57.5448 48.7333 57.3544L57.3509 48.7368C57.5413 48.5464 57.6482 48.2881 57.6482 48.0188C57.6482 47.7495 57.5413 47.4912 57.3509 47.3007L52.2616 42.2104C52.8596 41.0544 53.358 39.8496 53.7515 38.609H60.9533C61.2226 38.609 61.481 38.502 61.6714 38.3115C61.8619 38.1211 61.9689 37.8627 61.9689 37.5934V25.4059C61.9689 25.1365 61.8619 24.8782 61.6714 24.6877C61.481 24.4972 61.2226 24.3902 60.9533 24.3902ZM11.3908 11.3902C16.5985 6.18085 23.6251 3.19638 30.9899 3.06565C38.3548 2.93493 45.4829 5.66817 50.8722 10.6895L49.4381 12.1235C44.4261 7.49817 37.8189 4.99136 31.0002 5.12808C24.1815 5.2648 17.6801 8.03444 12.8575 12.857C8.03497 17.6795 5.26534 24.1809 5.12862 30.9997C4.9919 37.8184 7.4987 44.4256 12.1241 49.4376L10.69 50.8717C5.6687 45.4823 2.93546 38.3543 3.06618 30.9894C3.19691 23.6245 6.18139 16.598 11.3908 11.3902ZM40.1177 22.882C42.3726 25.1739 43.6305 28.264 43.6174 31.4791C43.6043 34.6942 42.3213 37.7739 40.0478 40.0473C37.7744 42.3207 34.6947 43.6037 31.4796 43.6168C28.2645 43.6299 25.1745 42.3721 22.8826 40.1172C22.6921 39.9268 22.4338 39.8198 22.1645 39.8198C21.8952 39.8198 21.6369 39.9268 21.4465 40.1172L13.5612 48.0025C9.3016 43.3745 6.99593 37.2791 7.12622 30.9906C7.2565 24.702 9.81266 18.7073 14.2603 14.2597C18.7079 9.81212 24.7026 7.25597 30.9911 7.12568C37.2796 6.9954 43.375 9.30106 48.003 13.5606L40.1177 21.4449C40.0233 21.5393 39.9484 21.6513 39.8973 21.7746C39.8462 21.8979 39.8199 22.03 39.8199 22.1635C39.8199 22.297 39.8462 22.4291 39.8973 22.5524C39.9484 22.6757 40.0233 22.7877 40.1177 22.882ZM59.9377 36.5777H52.9948C52.7728 36.5776 52.5569 36.6502 52.3801 36.7845C52.2032 36.9188 52.0753 37.1073 52.0158 37.3212C51.5697 38.9143 50.9352 40.4486 50.1257 41.8915C50.0166 42.0851 49.974 42.3092 50.0044 42.5293C50.0349 42.7495 50.1367 42.9535 50.2943 43.1102L55.1987 48.0157L48.0183 55.1962L43.1128 50.2917C42.9561 50.1342 42.752 50.0323 42.5319 50.0019C42.3117 49.9714 42.0877 50.014 41.8941 50.1231C40.4512 50.9326 38.9169 51.5671 37.3237 52.0132C37.1099 52.0727 36.9213 52.2007 36.7871 52.3775C36.6528 52.5543 36.5802 52.7703 36.5803 52.9923V59.9371H26.422V52.9943C26.4222 52.7723 26.3495 52.5563 26.2153 52.3795C26.081 52.2027 25.8925 52.0747 25.6786 52.0152C24.0854 51.5691 22.5512 50.9346 21.1083 50.1252C20.9147 50.0161 20.6906 49.9735 20.4705 50.0039C20.2503 50.0344 20.0462 50.1362 19.8895 50.2938L14.9841 55.1982L12.1119 52.326L22.1919 42.247C24.9095 44.5997 28.4173 45.8358 32.0095 45.7067C35.6017 45.5775 39.0117 44.0926 41.5533 41.5508C44.0948 39.0089 45.5794 35.5988 45.7082 32.0066C45.837 28.4144 44.6005 24.9067 42.2475 22.1894L52.3266 12.1093L55.1987 14.9815L50.2943 19.887C50.1367 20.0437 50.0349 20.2478 50.0044 20.4679C49.974 20.688 50.0166 20.9121 50.1257 21.1057C50.9353 22.5485 51.5698 24.0828 52.0158 25.676C52.0753 25.8899 52.2032 26.0784 52.3801 26.2127C52.5569 26.347 52.7728 26.4196 52.9948 26.4195H59.9377V36.5777Z" fill="black" stroke="black" stroke-width="0.3"/>
<path d="M32.5156 27.5817V16.2656C32.5156 15.9963 32.4086 15.7379 32.2182 15.5475C32.0277 15.357 31.7694 15.25 31.5 15.25C31.2306 15.25 30.9723 15.357 30.7818 15.5475C30.5914 15.7379 30.4844 15.9963 30.4844 16.2656V27.5817C29.7864 27.7642 29.1496 28.1293 28.6395 28.6395C28.1293 29.1496 27.7642 29.7864 27.5817 30.4844H20.3281C20.0588 30.4844 19.8004 30.5914 19.61 30.7818C19.4195 30.9723 19.3125 31.2306 19.3125 31.5C19.3125 31.7694 19.4195 32.0277 19.61 32.2182C19.8004 32.4086 20.0588 32.5156 20.3281 32.5156H27.5817C27.7593 33.2087 28.1172 33.8424 28.6189 34.3524C29.1206 34.8625 29.7484 35.2307 30.4384 35.4196C31.1285 35.6086 31.8562 35.6116 32.5478 35.4283C33.2394 35.245 33.8702 34.882 34.3761 34.3761C34.882 33.8702 35.245 33.2394 35.4283 32.5478C35.6116 31.8562 35.6086 31.1285 35.4196 30.4384C35.2307 29.7484 34.8625 29.1206 34.3524 28.6189C33.8424 28.1172 33.2087 27.7593 32.5156 27.5817ZM31.5 33.5312C31.0983 33.5312 30.7055 33.4121 30.3715 33.1889C30.0375 32.9657 29.7771 32.6485 29.6234 32.2773C29.4696 31.9062 29.4294 31.4977 29.5078 31.1037C29.5862 30.7097 29.7796 30.3478 30.0637 30.0637C30.3478 29.7796 30.7097 29.5862 31.1037 29.5078C31.4977 29.4294 31.9062 29.4696 32.2773 29.6234C32.6485 29.7771 32.9657 30.0375 33.1889 30.3715C33.4121 30.7055 33.5312 31.0983 33.5312 31.5C33.5312 32.0387 33.3172 32.5554 32.9363 32.9363C32.5554 33.3172 32.0387 33.5312 31.5 33.5312Z" fill="black" stroke="black" stroke-width="0.3"/>
<path d="M31.5 12.2031C31.2306 12.2031 30.9723 12.0961 30.7818 11.9057C30.5914 11.7152 30.4844 11.4569 30.4844 11.1875V9.15625C30.4844 8.88689 30.5914 8.62856 30.7818 8.43809C30.9723 8.24763 31.2306 8.14062 31.5 8.14062C31.7694 8.14062 32.0277 8.24763 32.2182 8.43809C32.4086 8.62856 32.5156 8.88689 32.5156 9.15625V11.1875C32.5156 11.4569 32.4086 11.7152 32.2182 11.9057C32.0277 12.0961 31.7694 12.2031 31.5 12.2031Z" fill="black" stroke="black" stroke-width="0.3"/>
<path d="M41.6562 14.9251C41.478 14.925 41.303 14.8779 41.1487 14.7887C40.9945 14.6995 40.8664 14.5712 40.7774 14.4169C40.6884 14.2625 40.6416 14.0875 40.6416 13.9093C40.6416 13.7311 40.6886 13.556 40.7777 13.4017L41.7933 11.6416C41.9289 11.4103 42.1506 11.2419 42.4099 11.1734C42.6692 11.1048 42.945 11.1416 43.1773 11.2757C43.4096 11.4098 43.5794 11.6303 43.6496 11.8892C43.7199 12.148 43.6849 12.4241 43.5524 12.6573L42.5367 14.4173C42.4475 14.5719 42.3192 14.7002 42.1646 14.7893C42.01 14.8785 41.8346 14.9253 41.6562 14.9251Z" fill="black" stroke="black" stroke-width="0.3"/>
<path d="M21.3434 14.9251C21.1649 14.9253 20.9896 14.8785 20.835 14.7893C20.6804 14.7002 20.552 14.5719 20.4628 14.4173L19.4472 12.6573C19.3146 12.4241 19.2797 12.148 19.3499 11.8892C19.4202 11.6303 19.59 11.4098 19.8223 11.2757C20.0545 11.1416 20.3304 11.1048 20.5897 11.1734C20.849 11.2419 21.0706 11.4103 21.2062 11.6416L22.2219 13.4017C22.311 13.556 22.3579 13.7311 22.3579 13.9093C22.358 14.0875 22.3111 14.2625 22.2221 14.4169C22.1331 14.5712 22.005 14.6995 21.8508 14.7887C21.6966 14.8779 21.5215 14.925 21.3434 14.9251Z" fill="black" stroke="black" stroke-width="0.3"/>
<path d="M13.9085 22.3599C13.7302 22.3603 13.555 22.3133 13.4007 22.2238L11.6407 21.2082C11.4093 21.0726 11.241 20.8509 11.1724 20.5916C11.1039 20.3323 11.1406 20.0565 11.2747 19.8242C11.4088 19.5919 11.6294 19.4222 11.8882 19.3519C12.147 19.2816 12.4231 19.3166 12.6563 19.4491L14.4164 20.4648C14.61 20.5766 14.7613 20.7491 14.8468 20.9557C14.9324 21.1622 14.9474 21.3912 14.8895 21.6072C14.8317 21.8231 14.7041 22.0139 14.5268 22.15C14.3494 22.2861 14.1321 22.3599 13.9085 22.3599Z" fill="black" stroke="black" stroke-width="0.3"/>
<path d="M11.1875 32.5156H9.15625C8.88689 32.5156 8.62856 32.4086 8.43809 32.2182C8.24763 32.0277 8.14062 31.7694 8.14062 31.5C8.14062 31.2306 8.24763 30.9723 8.43809 30.7818C8.62856 30.5914 8.88689 30.4844 9.15625 30.4844H11.1875C11.4569 30.4844 11.7152 30.5914 11.9057 30.7818C12.0961 30.9723 12.2031 31.2306 12.2031 31.5C12.2031 31.7694 12.0961 32.0277 11.9057 32.2182C11.7152 32.4086 11.4569 32.5156 11.1875 32.5156Z" fill="black" stroke="black" stroke-width="0.3"/>
<path d="M12.1503 43.687C11.9268 43.687 11.7095 43.6132 11.5321 43.4771C11.3547 43.341 11.2272 43.1502 11.1694 42.9342C11.1115 42.7183 11.1265 42.4893 11.2121 42.2827C11.2976 42.0762 11.4489 41.9036 11.6425 41.7918L13.4026 40.7762C13.5182 40.7084 13.646 40.6642 13.7787 40.6461C13.9114 40.6279 14.0464 40.6362 14.1759 40.6705C14.3053 40.7047 14.4268 40.7642 14.5332 40.8456C14.6396 40.9269 14.7288 41.0285 14.7958 41.1445C14.8628 41.2605 14.9062 41.3886 14.9234 41.5214C14.9407 41.6543 14.9315 41.7892 14.8964 41.9185C14.8613 42.0477 14.801 42.1688 14.7189 42.2746C14.6369 42.3805 14.5347 42.469 14.4182 42.5353L12.6582 43.5509C12.5039 43.6404 12.3287 43.6873 12.1503 43.687Z" fill="black" stroke="black" stroke-width="0.3"/>
<path d="M31.5001 41.6564C30.1658 41.6601 28.8441 41.3986 27.6118 40.887C26.3795 40.3754 25.2611 39.6241 24.3217 38.6765C24.2248 38.5827 24.1476 38.4705 24.0946 38.3465C24.0415 38.2226 24.0137 38.0892 24.0127 37.9544C24.0117 37.8195 24.0376 37.6858 24.0889 37.5611C24.1401 37.4364 24.2157 37.3231 24.3112 37.2279C24.4067 37.1326 24.5202 37.0574 24.6451 37.0065C24.7699 36.9556 24.9037 36.9301 25.0386 36.9315C25.1734 36.9328 25.3066 36.961 25.4305 37.0144C25.5543 37.0678 25.6662 37.1453 25.7598 37.2425C26.5108 38.0096 27.4065 38.6202 28.3951 39.0389C29.3836 39.4577 30.4454 39.6762 31.519 39.6819C32.5925 39.6876 33.6566 39.4804 34.6495 39.0722C35.6425 38.6639 36.5446 38.0629 37.3037 37.3038C38.0629 36.5446 38.6639 35.6425 39.0721 34.6495C39.4803 33.6566 39.6876 32.5926 39.6819 31.519C39.6762 30.4454 39.4577 29.3836 39.0389 28.3951C38.6202 27.4065 38.0096 26.5108 37.2425 25.7598C37.1453 25.6663 37.0678 25.5543 37.0144 25.4305C36.961 25.3066 36.9328 25.1734 36.9315 25.0386C36.9301 24.9037 36.9556 24.7699 37.0065 24.6451C37.0574 24.5202 37.1326 24.4067 37.2279 24.3112C37.3231 24.2157 37.4364 24.1401 37.5611 24.0889C37.6858 24.0376 37.8195 24.0117 37.9544 24.0127C38.0892 24.0137 38.2225 24.0415 38.3465 24.0946C38.4705 24.1476 38.5827 24.2248 38.6765 24.3217C40.0955 25.7419 41.0618 27.5508 41.4532 29.5199C41.8446 31.4891 41.6437 33.53 40.8757 35.385C40.1078 37.2399 38.8073 38.8257 37.1386 39.9419C35.4699 41.0581 33.5077 41.6547 31.5001 41.6564Z" fill="black" stroke="black" stroke-width="0.3"/>
</svg>
