<svg width="60" height="60" viewBox="0 0 60 60" fill="none" xmlns="http://www.w3.org/2000/svg">
<path d="M49.1563 29.4536C49.7593 29.4536 50.2481 28.9648 50.2481 28.3617C50.2481 27.7587 49.7593 27.2699 49.1563 27.2699C48.5533 27.2699 48.0645 27.7587 48.0645 28.3617C48.0645 28.9648 48.5533 29.4536 49.1563 29.4536Z" fill="black"/>
<path d="M9.84965 29.4536C10.4527 29.4536 10.9415 28.9648 10.9415 28.3617C10.9415 27.7587 10.4527 27.2699 9.84965 27.2699C9.24665 27.2699 8.75781 27.7587 8.75781 28.3617C8.75781 28.9648 9.24665 29.4536 9.84965 29.4536Z" fill="black"/>
<path d="M13.125 32.7291C13.7281 32.7291 14.2169 32.2403 14.2169 31.6373C14.2169 31.0343 13.7281 30.5454 13.125 30.5454C12.522 30.5454 12.0332 31.0343 12.0332 31.6373C12.0332 32.2403 12.522 32.7291 13.125 32.7291Z" fill="black"/>
<path d="M19.6758 32.7291C20.2788 32.7291 20.7677 32.2403 20.7677 31.6373C20.7677 31.0343 20.2788 30.5454 19.6758 30.5454C19.0728 30.5454 18.584 31.0343 18.584 31.6373C18.584 32.2403 19.0728 32.7291 19.6758 32.7291Z" fill="black"/>
<path d="M16.4004 36.0046C17.0034 36.0046 17.4923 35.5158 17.4923 34.9128C17.4923 34.3098 17.0034 33.821 16.4004 33.821C15.7974 33.821 15.3086 34.3098 15.3086 34.9128C15.3086 35.5158 15.7974 36.0046 16.4004 36.0046Z" fill="black"/>
<path d="M22.9512 36.0046C23.5542 36.0046 24.0431 35.5158 24.0431 34.9128C24.0431 34.3098 23.5542 33.821 22.9512 33.821C22.3482 33.821 21.8594 34.3098 21.8594 34.9128C21.8594 35.5158 22.3482 36.0046 22.9512 36.0046Z" fill="black"/>
<path d="M26.2276 39.2802C26.8306 39.2802 27.3194 38.7913 27.3194 38.1883C27.3194 37.5853 26.8306 37.0965 26.2276 37.0965C25.6246 37.0965 25.1357 37.5853 25.1357 38.1883C25.1357 38.7913 25.6246 39.2802 26.2276 39.2802Z" fill="black"/>
<path d="M32.7784 39.2802C33.3814 39.2802 33.8702 38.7913 33.8702 38.1883C33.8702 37.5853 33.3814 37.0965 32.7784 37.0965C32.1754 37.0965 31.6865 37.5853 31.6865 38.1883C31.6865 38.7913 32.1754 39.2802 32.7784 39.2802Z" fill="black"/>
<path d="M36.0538 36.0046C36.6568 36.0046 37.1456 35.5158 37.1456 34.9128C37.1456 34.3098 36.6568 33.821 36.0538 33.821C35.4507 33.821 34.9619 34.3098 34.9619 34.9128C34.9619 35.5158 35.4507 36.0046 36.0538 36.0046Z" fill="black"/>
<path d="M29.503 42.5557C30.106 42.5557 30.5948 42.0669 30.5948 41.4639C30.5948 40.8608 30.106 40.372 29.503 40.372C28.9 40.372 28.4111 40.8608 28.4111 41.4639C28.4111 42.0669 28.9 42.5557 29.503 42.5557Z" fill="black"/>
<path d="M39.3291 32.7291C39.9322 32.7291 40.421 32.2403 40.421 31.6373C40.421 31.0343 39.9322 30.5454 39.3291 30.5454C38.7261 30.5454 38.2373 31.0343 38.2373 31.6373C38.2373 32.2403 38.7261 32.7291 39.3291 32.7291Z" fill="black"/>
<path d="M45.8799 32.7291C46.4829 32.7291 46.9718 32.2403 46.9718 31.6373C46.9718 31.0343 46.4829 30.5454 45.8799 30.5454C45.2769 30.5454 44.7881 31.0343 44.7881 31.6373C44.7881 32.2403 45.2769 32.7291 45.8799 32.7291Z" fill="black"/>
<path d="M42.6045 36.0046C43.2075 36.0046 43.6964 35.5158 43.6964 34.9128C43.6964 34.3098 43.2075 33.821 42.6045 33.821C42.0015 33.821 41.5127 34.3098 41.5127 34.9128C41.5127 35.5158 42.0015 36.0046 42.6045 36.0046Z" fill="black"/>
<path d="M49.7432 35.8081L60 29.9482L49.4572 23.9616L60 17.9379L30.0005 0.901876L0 17.9379L10.5428 23.9616L0 29.9482L10.5428 35.9718L0 41.9584L30.0005 59.0982L60.0011 41.9584L49.4583 35.9718L49.5358 35.9271C49.6122 35.8987 49.6755 35.8528 49.7432 35.8081ZM30.0005 3.41202L55.589 17.9433L47.2506 22.7081L30.0016 32.5631L4.41213 17.9433L30.0005 3.41202ZM12.1511 25.5589C12.328 25.9225 12.6938 26.178 13.125 26.178C13.4198 26.178 13.6841 26.059 13.8806 25.869L16.3503 27.2797C15.7717 27.307 15.3087 27.7765 15.3087 28.3617C15.3087 28.9644 15.7979 29.4535 16.4006 29.4535C17.0033 29.4535 17.4924 28.9644 17.4924 28.3617C17.4924 28.1728 17.4324 28.0047 17.3483 27.8496L28.627 34.2937C28.5004 34.4717 28.4108 34.678 28.4108 34.9128C28.4108 35.5155 28.9 36.0046 29.5027 36.0046C30.1054 36.0046 30.5945 35.5155 30.5945 34.9128C30.5945 34.8571 30.5716 34.8101 30.5628 34.7566L41.538 28.4862C41.6025 29.0277 42.0457 29.4525 42.6048 29.4525C43.2075 29.4525 43.6966 28.9633 43.6966 28.3606C43.6966 28.0058 43.5165 27.7044 43.2533 27.5057L45.6576 26.1322C45.7318 26.1485 45.8017 26.1769 45.8803 26.1769C46.3651 26.1769 46.7614 25.8559 46.9044 25.4192L47.2538 25.2194L55.589 29.9525L53.4238 31.1896C53.2524 30.8107 52.8746 30.5443 52.4324 30.5443C51.8297 30.5443 51.3406 31.0334 51.3406 31.6361C51.3406 31.872 51.4312 32.0783 51.5579 32.2563L47.2506 34.7173L40.2759 38.7025C40.361 38.5475 40.4222 38.3772 40.4222 38.1872C40.4222 37.5845 39.933 37.0954 39.3303 37.0954C38.7276 37.0954 38.2385 37.5845 38.2385 38.1872C38.2385 38.7735 38.7036 39.243 39.2834 39.2692L36.8125 40.681C36.616 40.491 36.3507 40.3709 36.0548 40.3709C35.4521 40.3709 34.963 40.86 34.963 41.4627C34.963 41.5501 34.9935 41.6276 35.0132 41.7095L30.0016 44.5723L23.9779 41.1308C23.836 40.693 23.4386 40.3709 22.9527 40.3709C22.873 40.3709 22.802 40.4004 22.7278 40.4167L20.3246 39.0443C20.5878 38.8445 20.769 38.5442 20.769 38.1883C20.769 37.5856 20.2799 37.0964 19.6772 37.0964C19.1182 37.0964 18.6738 37.5234 18.6105 38.0649L7.63307 31.7945C7.64071 31.741 7.66473 31.6929 7.66473 31.6372C7.66473 31.0345 7.17559 30.5454 6.57289 30.5454C6.31194 30.5454 6.08265 30.6491 5.89486 30.802L4.41104 29.9547L12.1511 25.5589ZM55.5879 41.9639L29.9995 56.5836L4.41213 41.9639L12.7462 37.2307L30.0005 47.0879L47.2538 37.2307L55.5879 41.9639Z" fill="black"/>
</svg>
