<svg width="66" height="67" viewBox="0 0 66 67" fill="none" xmlns="http://www.w3.org/2000/svg">
<path d="M64.8079 8.64836C63.8598 5.66671 62.5748 3.53182 62.5204 3.4421C62.3097 3.09483 61.8759 2.91418 61.483 3.0043C61.3812 3.02753 58.9547 3.5939 56.1557 4.9918C52.377 6.87836 49.7374 9.39697 48.5214 12.2741C47.5092 14.6701 47.3638 17.5993 48.082 20.8353C46.5523 19.127 44.8316 17.6325 42.9558 16.3744C42.383 15.2429 40.8686 12.4571 38.501 9.54558C37.7211 8.58708 36.2211 9.78991 37.009 10.758C38.6043 12.7203 39.8052 14.6501 40.5562 15.9759L31.7991 14.2688L23.479 2.92019C24.2869 2.9314 25.0976 3.00951 25.9043 3.16772C28.4618 3.6684 30.988 4.97097 33.4141 7.03858C34.3646 7.84887 35.599 6.37407 34.661 5.57499C31.9809 3.29109 29.1591 1.84593 26.2736 1.28076C21.8688 0.418795 16.7314 1.55033 11.4154 4.55441C7.45326 6.79344 4.80366 9.25278 4.69311 9.35612C4.33863 9.68737 4.28216 10.289 4.57896 10.6759C4.96749 11.473 6.43988 14.3485 8.89081 17.4443C10.3356 19.2696 11.8592 20.8317 13.4354 22.1154C12.9876 22.4907 12.5518 22.8833 12.13 23.2962C9.87735 25.4996 8.15261 28.0987 7.02027 30.9402C6.01931 33.4508 5.48098 36.1517 5.45094 38.9354C5.40127 43.4876 6.72026 47.878 9.26612 51.6327C11.7531 55.3 15.2298 58.1159 19.3202 59.7753C20.4649 60.2387 21.1887 58.4583 20.0431 57.9937C18.5611 57.3925 17.1688 56.6222 15.8847 55.7062C16.0489 54.7954 16.4298 51.5173 14.2525 48.1239C13.9477 47.6493 14.8589 45.7851 15.4028 44.6716C15.9644 43.5241 16.544 42.3377 16.8148 41.2205C17.1024 40.0337 16.7787 39.0376 15.8795 38.3386C15.2194 37.8255 14.3554 37.56 13.594 37.3257C13.0993 37.1735 12.5386 37.0012 12.3383 36.8342C11.9257 36.4885 11.252 35.2112 10.7105 34.1854C10.1097 33.0475 9.53769 31.9644 8.95369 31.2975C10.2679 28.1765 12.3787 25.4147 15.0223 23.3018C17.4372 24.9469 20.1933 26.082 23.1229 26.3119C19.7255 28.9443 18.6264 32.3061 20.1973 35.5352C22.0318 39.306 25.8078 38.7035 29.1391 38.1728C29.7155 38.0807 30.3119 37.9858 30.883 37.9145C31.0973 37.8876 31.1618 37.9461 31.2051 37.9842C31.9345 38.633 31.9128 41.732 31.8972 43.9951C31.876 47.1254 31.856 50.0822 33.0219 51.6002C33.6168 52.3741 34.4543 52.7698 35.436 52.7698C36.0244 52.7698 36.6637 52.628 37.3342 52.3404C40.2337 51.0988 43.2478 47.3617 42.788 44.4049C42.3863 41.8198 42.1203 40.1118 42.7471 38.7352C43.3267 37.461 44.7278 36.2814 47.4872 34.7762C47.8176 36.2642 47.9842 37.8123 47.967 39.4005C47.9081 44.8214 45.7412 49.8951 41.8659 53.6863C37.5349 57.9232 31.4478 60.0156 25.4264 59.3519C24.1996 59.219 23.9877 61.128 25.2162 61.2633C31.8071 61.9891 38.4709 59.698 43.2102 55.0609C47.4531 50.9101 49.8251 45.3562 49.8896 39.4209C49.9753 31.5514 45.9375 24.5796 39.7907 20.5633C41.0609 19.6577 42.0069 18.8746 42.5317 18.42C44.7727 20.0278 46.7606 22.0085 48.4144 24.316C52.3846 29.8567 53.9592 36.6111 52.8489 43.3362C50.5557 57.2187 37.3967 66.6486 23.5118 64.3547C16.7863 63.244 10.8963 59.5815 6.92614 54.0407C2.95556 48.5004 1.38102 41.7453 2.49173 35.0205C2.6912 33.8105 0.795425 33.4929 0.595153 34.7073C-0.599668 41.9391 1.09423 49.203 5.36282 55.1611C9.63221 61.1183 15.9668 65.0573 23.1986 66.2521C24.7111 66.5016 26.2251 66.625 27.7288 66.625C33.4125 66.625 38.9416 64.8602 43.6532 61.484C49.6121 57.2146 53.5514 50.8813 54.7454 43.6494C55.6206 38.3503 54.9433 33.0338 52.8396 28.2265C53.8106 27.9401 55.4628 27.3842 57.2725 26.4806C61.0504 24.594 63.6904 22.0754 64.906 19.1983C66.1229 16.3204 66.0888 12.6722 64.8079 8.64836ZM9.00977 35.0826C9.72514 36.4389 10.4017 37.7206 11.1046 38.3086C11.6025 38.7248 12.2954 38.9379 13.0288 39.1634C14.9078 39.7409 15.1261 40.0245 14.9458 40.7675C14.7247 41.6812 14.1912 42.7723 13.6757 43.8269C12.6828 45.8584 11.7451 47.7762 12.6339 49.1621C13.8944 51.1264 14.1103 53.0602 14.0887 54.263C8.36249 49.0996 6.03093 40.9442 8.16382 33.5317C8.44661 34.0164 8.74381 34.5795 9.00977 35.0826ZM55.5229 16.1902L52.7908 9.56921C54.1202 8.32592 55.6627 7.39025 56.9765 6.73136C58.0956 6.1698 59.1602 5.75003 60.0142 5.45242L55.5229 16.1902ZM61.7866 6.19783C62.1683 7.01815 62.6109 8.07598 62.989 9.2716C63.4036 10.5838 63.7841 12.21 63.8598 13.9063L57.4571 16.5479L61.7866 6.19783ZM50.2922 13.0227C50.5758 12.3522 50.9423 11.7305 51.3656 11.1566L54.4759 18.6928L51.6849 25.3666C51.2927 24.5347 50.8309 23.442 50.4392 22.2007C49.6529 19.7154 48.9896 16.1049 50.2922 13.0227ZM56.4513 24.741C55.3743 25.2817 54.3465 25.6911 53.5093 25.9863L56.4057 19.0621L63.7781 16.02C63.6711 16.8459 63.4673 17.6646 63.1352 18.4497C61.833 21.5318 58.7817 23.5726 56.4513 24.741ZM21.7855 24.1938C21.4458 24.1274 21.1106 24.046 20.7801 23.9535L31.4202 16.1541L40.1813 17.8617C36.9897 20.3763 29.2228 25.651 21.7855 24.1938ZM12.0615 18.1789C9.78602 15.7264 8.11816 13.104 7.16046 11.4249L18.3096 13.5987L12.0615 18.1789ZM14.0306 5.35229L18.6953 11.7149L7.47409 9.52755C8.8868 8.41204 11.2188 6.73737 14.0306 5.35229ZM21.4767 12.2573L15.8214 4.54319C17.5145 3.84745 19.3318 3.2999 21.1947 3.05637L29.0181 13.7268L21.4767 12.2573ZM20.8783 14.0994L28.8519 15.6535L18.6184 23.1544C16.6886 22.2632 14.9518 20.9819 13.4322 19.5576L20.8783 14.0994ZM46.9649 32.8728C43.499 34.7193 41.8019 36.1697 40.9968 37.9389C40.132 39.8387 40.4488 41.8778 40.8874 44.7001C41.1466 46.3643 39.1687 49.4633 36.5772 50.5732C35.6183 50.9838 34.9353 50.9353 34.5464 50.4286C33.7826 49.4345 33.8034 46.4256 33.8198 44.0083C33.8427 40.6638 33.8627 37.7755 32.4828 36.5478C31.9865 36.1064 31.3517 35.9198 30.6463 36.0063C30.0419 36.0816 29.4287 36.1793 28.8363 36.2738C25.3023 36.837 23.0785 37.0625 21.9265 34.6941C20.06 30.8581 23.8383 28.0166 25.5494 26.9732C25.8979 26.7609 26.2211 26.5106 26.5215 26.2318C30.6571 25.7375 34.5648 23.9631 38.0472 21.7405C42.2224 24.2351 45.4276 28.1829 46.9649 32.8728Z" fill="black" stroke="black" stroke-width="0.3"/>
</svg>
