<svg width="65" height="65" viewBox="0 0 65 65" fill="none" xmlns="http://www.w3.org/2000/svg">
<path d="M63.8923 5.6998C64.5038 5.6998 64.9995 5.20405 64.9995 4.59265V1.10716C64.9995 0.495751 64.504 0 63.8923 0H13.7907C13.1793 0 12.6836 0.495751 12.6836 1.10716V51.2085C12.6836 51.8199 13.1793 52.3156 13.7907 52.3156H63.8921C64.5036 52.3156 64.9992 51.8199 64.9992 51.2085V8.28304C64.9992 7.67164 64.5037 7.17588 63.8921 7.17588C63.2805 7.17588 62.7849 7.67164 62.7849 8.28304V27.2518H58.388C57.7765 27.2518 57.2809 27.7476 57.2809 28.359C57.2809 28.9704 57.7764 29.4661 58.388 29.4661H62.7849V50.1014H31.1528V44.7444C31.1528 44.133 30.6571 43.6373 30.0457 43.6373C29.4343 43.6373 28.9385 44.133 28.9385 44.7444V50.1014H14.8979V2.21431H28.9386V36.7732C28.9386 37.3846 29.4344 37.8803 30.0458 37.8803C30.6572 37.8803 31.153 37.3846 31.153 36.7732V29.4661H50.8597C51.4712 29.4661 51.9669 28.9704 51.9669 28.359C51.9669 27.7476 51.4714 27.2518 50.8597 27.2518H31.1528V2.21431H62.7852V4.59265C62.7852 5.20405 63.2807 5.6998 63.8923 5.6998Z" fill="black"/>
<path d="M9.35372 6.38967L5.7004 0.52203C5.49829 0.197412 5.14283 0 4.76057 0C4.37819 0 4.02285 0.197412 3.82074 0.52203L0.16729 6.38967C-0.0452292 6.73104 -0.0560201 7.16078 0.139233 7.51231C0.334487 7.86384 0.705062 8.08195 1.10712 8.08195H3.65341V12.7117C3.65341 13.3231 4.14917 13.8188 4.76057 13.8188C5.37198 13.8188 5.86773 13.3231 5.86773 12.7117V8.08195H8.41402C8.81608 8.08195 9.18666 7.86397 9.38191 7.51231C9.57716 7.16065 9.56637 6.73091 9.35372 6.38967ZM3.10066 5.86763L4.76044 3.20188L6.42023 5.86763H3.10066Z" fill="black"/>
<path d="M9.38178 44.8034C9.18653 44.4519 8.81596 44.2339 8.4139 44.2339H5.8676V15.6639C5.8676 15.0525 5.37185 14.5567 4.76045 14.5567C4.14904 14.5567 3.65329 15.0525 3.65329 15.6639V44.2337H1.10712C0.705062 44.2337 0.334487 44.4517 0.139233 44.8034C-0.0560202 45.155 -0.0452292 45.5848 0.16729 45.926L3.82061 51.7937C4.02272 52.1183 4.37806 52.3157 4.76045 52.3157C5.14295 52.3157 5.4983 52.1183 5.70028 51.7937L9.3536 45.926C9.56637 45.5845 9.57716 45.1549 9.38178 44.8034ZM4.76057 49.1139L3.10066 46.4482H6.42023L4.76057 49.1139Z" fill="black"/>
<path d="M64.4774 59.2994L58.6098 55.6461C58.2684 55.4335 57.8387 55.4229 57.4872 55.618C57.1356 55.8133 56.9177 56.1838 56.9177 56.5859V59.1322H20.7655V56.5859C20.7655 56.1838 20.5476 55.8133 20.196 55.618C19.8445 55.4229 19.4149 55.4335 19.0733 55.6461L13.2056 59.2994C12.881 59.5015 12.6836 59.8568 12.6836 60.2392C12.6836 60.6216 12.881 60.9769 13.2056 61.1791L19.0733 64.8324C19.252 64.9437 19.4551 64.9996 19.6584 64.9996C19.8434 64.9996 20.0285 64.9534 20.1959 64.8604C20.5476 64.6652 20.7655 64.2946 20.7655 63.8925V61.3462H56.9175V63.8925C56.9175 64.2946 57.1358 64.6652 57.487 64.8604C57.6546 64.9535 57.8397 64.9996 58.0247 64.9996C58.2279 64.9996 58.4311 64.9436 58.6098 64.8324L64.4774 61.1791C64.8021 60.9769 64.9995 60.6216 64.9995 60.2392C64.9995 59.8567 64.8021 59.5015 64.4774 59.2994ZM18.5512 61.899L15.8855 60.2392L18.5512 58.5794V61.899ZM59.1318 61.899V58.5794L61.7979 60.2392L59.1318 61.899Z" fill="black"/>
</svg>
