<svg width="73" height="77" viewBox="0 0 73 77" fill="none" xmlns="http://www.w3.org/2000/svg">
<path d="M47.3411 19.1824C48.1117 19.5609 48.8548 19.9865 49.5705 20.451C49.0109 21.4572 48.7101 22.5985 48.7101 23.7596C48.7101 27.5096 51.761 30.5603 55.511 30.5603C56.2625 30.5603 57.008 30.4327 57.7149 30.1908C58.8105 32.8058 59.3819 35.6245 59.3819 38.4998C59.3819 39.9391 59.2384 41.3798 58.9552 42.7818C58.8354 43.3747 59.2191 43.9525 59.812 44.0722C59.8852 44.0871 59.958 44.0941 60.03 44.0941C60.5406 44.0941 60.9975 43.7351 61.1025 43.2152C61.4145 41.6709 61.5726 40.0843 61.5726 38.4996C61.5726 34.9655 60.7881 31.5087 59.2921 28.3538C59.2744 28.3088 59.2549 28.2644 59.2309 28.2211C59.2289 28.2173 59.2264 28.2141 59.2242 28.2103C58.8258 27.3845 58.381 26.5788 57.8854 25.7996C55.5383 22.109 52.2263 19.1408 48.3073 17.2161C47.7643 16.9494 47.108 17.1732 46.8412 17.7163C46.5741 18.2594 46.7981 18.9157 47.3411 19.1824ZM56.0366 26.9755C56.2908 27.3752 56.5296 27.7829 56.7557 28.1965C56.3519 28.3096 55.9329 28.3699 55.5108 28.3699C52.9687 28.3699 50.9005 26.3018 50.9005 23.7597C50.9005 23.0494 51.0584 22.3687 51.3608 21.7484C53.1838 23.2175 54.7668 24.9787 56.0366 26.9755Z" fill="black" stroke="black" stroke-width="0.2"/>
<path d="M10.1178 45.2548C9.53581 45.42 9.19802 46.0256 9.3632 46.6076C10.1477 49.3714 11.3328 52.0049 12.8857 54.435C13.0947 54.7621 13.4484 54.9407 13.8097 54.9407C14.0115 54.9407 14.2158 54.8849 14.3983 54.7683C14.9082 54.4426 15.0573 53.7653 14.7316 53.2556C13.2939 51.0055 12.1968 48.5676 11.4705 46.0095C11.3052 45.4273 10.6992 45.0893 10.1178 45.2548Z" fill="black" stroke="black" stroke-width="0.2"/>
<path d="M8.24023 38.4997C8.24023 39.2158 8.26725 39.9496 8.32041 40.6799C8.36232 41.2562 8.84294 41.6957 9.41162 41.6957C9.43834 41.6957 9.46522 41.6949 9.49223 41.6928C10.0955 41.6489 10.549 41.1241 10.5052 40.521C10.4559 39.8431 10.4308 39.1631 10.4308 38.4997C10.4308 29.0109 15.2325 20.3233 23.2753 15.2601C23.7872 14.9379 23.941 14.2616 23.6188 13.7497C23.2965 13.2379 22.6203 13.0838 22.1083 13.4062C17.9452 16.0269 14.4675 19.6743 12.0511 23.9541C9.55795 28.3698 8.24023 33.3994 8.24023 38.4997Z" fill="black" stroke="black" stroke-width="0.2"/>
<path d="M1.48397 39.5955H4.65683C5.26172 39.5955 5.75212 39.1052 5.75212 38.5002C5.75212 37.8952 5.26172 37.4049 4.65683 37.4049H1.48397C0.879073 37.4049 0.388672 37.8952 0.388672 38.5002C0.388672 39.1051 0.879073 39.5955 1.48397 39.5955Z" fill="black" stroke="black" stroke-width="0.2"/>
<path d="M23.7108 9.5301C23.893 9.93711 24.2925 10.1784 24.7114 10.1784C24.8608 10.1784 25.0128 10.1476 25.1581 10.0826C25.7103 9.83562 25.9577 9.18764 25.7106 8.63561L24.0114 4.83785C23.7644 4.28567 23.1168 4.03828 22.5643 4.28538C22.0121 4.53233 21.7647 5.18031 22.0118 5.73234L23.7108 9.5301Z" fill="black" stroke="black" stroke-width="0.2"/>
<path d="M8.77132 24.8942C9.02747 24.3461 8.79104 23.6942 8.24295 23.4381L5.37283 22.0963C4.82504 21.8401 4.17297 22.0765 3.91681 22.6245C3.66066 23.1726 3.8971 23.8245 4.44504 24.0806L7.31516 25.4225C7.46529 25.4926 7.62301 25.5259 7.7784 25.5259C8.19052 25.5259 8.58527 25.292 8.77132 24.8942Z" fill="black" stroke="black" stroke-width="0.2"/>
<path d="M13.7118 15.6826C13.9261 15.8986 14.2078 16.0068 14.4898 16.0068C14.7684 16.0068 15.0473 15.901 15.2609 15.6893C15.6905 15.2634 15.6936 14.57 15.2677 14.1404L2.56358 1.32424C2.13758 0.894588 1.44404 0.891521 1.01469 1.31752C0.585036 1.74337 0.58197 2.43677 1.00782 2.86642L13.7118 15.6826Z" fill="black" stroke="black" stroke-width="0.2"/>
<path d="M25.158 66.9184C24.6056 66.6713 23.9579 66.9187 23.7109 67.4709L22.0118 71.2687C21.7648 71.8207 22.012 72.4687 22.5642 72.7156C22.7095 72.7806 22.8614 72.8114 23.011 72.8114C23.4297 72.8114 23.8294 72.57 24.0115 72.1632L25.7107 68.3654C25.9576 67.8134 25.7102 67.1654 25.158 66.9184Z" fill="black" stroke="black" stroke-width="0.2"/>
<path d="M3.91688 54.3751C4.10293 54.7731 4.49768 55.0067 4.9098 55.0067C5.06504 55.0067 5.22306 54.9734 5.37289 54.9033L8.24301 53.5615C8.79095 53.3054 9.02753 52.6534 8.77138 52.1054C8.51523 51.5576 7.86345 51.3208 7.31522 51.5771L4.4451 52.9189C3.89716 53.1751 3.66058 53.827 3.91688 54.3751Z" fill="black" stroke="black" stroke-width="0.2"/>
<path d="M13.712 61.3179L1.00782 74.1339C0.581969 74.5635 0.585036 75.2569 1.01469 75.6828C1.2282 75.8945 1.50699 76.0003 1.78577 76.0003C2.06763 76.0003 2.34949 75.8922 2.56373 75.6761L15.2679 62.8601C15.6937 62.4304 15.6907 61.737 15.261 61.3112C14.8315 60.8852 14.1381 60.8882 13.712 61.3179Z" fill="black" stroke="black" stroke-width="0.2"/>
<path d="M59.2506 11.1299C59.8647 11.5445 60.3868 12.0581 60.8025 12.6564C61.1679 13.1824 61.7689 13.5005 62.4101 13.508H62.4328C63.0707 13.508 63.6741 13.2013 64.0508 12.6847C64.4516 12.1348 64.9634 11.6461 65.615 11.1906C66.1504 10.8163 66.4696 10.204 66.469 9.55205C66.4684 8.89955 66.1476 8.28691 65.6108 7.91319C64.9823 7.47566 64.4508 6.94816 64.0307 6.34531C63.6649 5.82015 63.0654 5.49887 62.4274 5.48572C61.7826 5.4736 61.1938 5.75809 60.805 6.26966C60.3714 6.84024 59.8233 7.37562 59.1762 7.86106C58.6546 8.25244 58.3527 8.87326 58.3688 9.52167C58.3845 10.1664 58.7143 10.7675 59.2506 11.1299ZM62.3836 7.80629C62.8738 8.46537 63.4629 9.05128 64.1397 9.55337C63.4743 10.0449 62.9043 10.5916 62.4404 11.183C61.9489 10.5248 61.361 9.94753 60.6879 9.46209C61.3367 8.95402 61.9053 8.39878 62.3836 7.80629Z" fill="black" stroke="black" stroke-width="0.2"/>
<path d="M71.5174 29.3245H69.66V27.4669C69.66 26.8618 69.1696 26.3716 68.5647 26.3716C67.9598 26.3716 67.4694 26.8618 67.4694 27.4669V29.3245H65.6119C65.007 29.3245 64.5166 29.8148 64.5166 30.4198C64.5166 31.0248 65.007 31.5151 65.6119 31.5151H67.4694V33.3726C67.4694 33.9776 67.9598 34.4679 68.5647 34.4679C69.1696 34.4679 69.66 33.9776 69.66 33.3726V31.5151H71.5174C72.1223 31.5151 72.6127 31.0248 72.6127 30.4198C72.6127 29.8148 72.1223 29.3245 71.5174 29.3245Z" fill="black" stroke="black" stroke-width="0.2"/>
<path d="M67.3004 59.4333H65.6978L65.2026 57.9091C64.9312 57.0739 64.159 56.5128 63.281 56.5128C62.403 56.5128 61.6307 57.0739 61.3594 57.9091L60.8642 59.4333H59.2615C58.3835 59.4333 57.6113 59.9944 57.3399 60.8295C57.0686 61.6645 57.3636 62.5723 58.0738 63.0884L59.3703 64.0305L58.8751 65.5547C58.6037 66.3898 58.8987 67.2975 59.6091 67.8135C60.3194 68.3298 61.2738 68.3296 61.9843 67.8137L63.2808 66.8717L64.5774 67.8137C64.9325 68.0719 65.3486 68.2007 65.7648 68.2007C66.181 68.2007 66.5974 68.0716 66.9525 67.8135C67.6629 67.2974 67.9577 66.3896 67.6864 65.5547L67.1912 64.0305L68.4877 63.0884C69.1981 62.5723 69.4929 61.6644 69.2216 60.8293C68.9507 59.9944 68.1784 59.4333 67.3004 59.4333ZM65.8042 62.3306C65.0936 62.8466 64.7986 63.7543 65.07 64.5897L65.4415 65.7335L64.4686 65.0266C63.7582 64.5105 62.8036 64.5102 62.0932 65.0266L61.1203 65.7336L61.492 64.5897C61.7633 63.7545 61.4683 62.8467 60.7581 62.3309L59.7851 61.6239H60.9877C61.8657 61.6239 62.6378 61.063 62.9093 60.2278L63.281 59.084L63.6526 60.2278C63.9238 61.0628 64.6961 61.6239 65.5741 61.6239H66.7767L65.8042 62.3306Z" fill="black" stroke="black" stroke-width="0.2"/>
<path d="M49.6696 59.0545C54.0143 56.5612 57.5528 52.7045 59.6298 47.9071C59.8702 47.352 59.6149 46.7071 59.0598 46.4669C58.5046 46.2267 57.8598 46.4818 57.6194 47.0369C57.0367 48.3828 56.3246 49.6452 55.5062 50.8168C54.5316 49.9662 53.2762 49.4822 51.9452 49.4822C48.9534 49.4822 46.5194 51.9162 46.5194 54.908C46.5194 55.9417 46.8172 56.9439 47.3593 57.8029C44.7803 59.0703 41.934 59.8276 38.9674 59.9781V54.1829C39.2356 54.2362 39.5102 54.2666 39.7902 54.2666C42.1009 54.2666 43.9808 52.3866 43.9808 50.076C43.9808 47.7653 42.1008 45.8854 39.7902 45.8854C39.5102 45.8854 39.2356 45.9157 38.9674 45.9691V32.353C39.3728 32.4477 39.7894 32.4985 40.2109 32.4985C43.2287 32.4985 45.6837 30.0434 45.6837 27.0257C45.6837 24.0079 43.2287 21.5528 40.2109 21.5528C39.7894 21.5528 39.3729 21.6036 38.9674 21.6981V17.0196C40.3901 17.0915 41.8008 17.3006 43.1742 17.6487C43.7608 17.797 44.3565 17.4424 44.5051 16.856C44.6537 16.2697 44.2988 15.6738 43.7125 15.5253C42.1635 15.1326 40.5718 14.9004 38.9674 14.827V2.11129C38.9674 1.50625 38.477 1.01599 37.8721 1.01599C37.2672 1.01599 36.7768 1.50625 36.7768 2.11129V8.88972C34.7874 8.96289 32.8089 9.23262 30.8807 9.69907C30.2928 9.84146 29.9315 10.4332 30.0737 11.0213C30.1951 11.5228 30.6433 11.8593 31.1375 11.8593C31.2226 11.8593 31.3093 11.8492 31.3959 11.8283C33.1557 11.4026 34.9611 11.1544 36.7769 11.0822V14.8254C24.215 15.3997 14.1719 25.7982 14.1719 38.4994C14.1719 39.1116 14.1958 39.7333 14.2431 40.3467C14.2875 40.9213 14.7673 41.358 15.3341 41.3578C15.3622 41.3578 15.3909 41.3568 15.4193 41.3546C16.0225 41.3082 16.4738 40.7816 16.4273 40.1784C16.3844 39.6207 16.3625 39.0557 16.3625 38.4994C16.3625 27.0061 25.4234 17.5896 36.7769 17.0173V59.981C32.4409 59.7662 28.3455 58.2761 24.8729 55.6372C21.2294 52.8686 18.5164 48.9394 17.2336 44.5735C17.063 43.993 16.4542 43.6602 15.874 43.8315C15.2936 44.0019 14.9614 44.6107 15.1318 45.1911C16.5455 50.0024 19.5343 54.3317 23.5475 57.3815C27.4045 60.3123 31.9579 61.9576 36.7769 62.1743V65.9179C29.7156 65.6437 23.1517 62.7239 18.1934 57.6223C17.7716 57.1884 17.0782 57.1786 16.6445 57.6004C16.2107 58.022 16.2008 58.7154 16.6224 59.1491C21.997 64.6788 29.1186 67.8347 36.7769 68.1098V74.8877C36.7769 75.4927 37.2673 75.983 37.8722 75.983C38.4771 75.983 38.9675 75.4927 38.9675 74.8877V62.1717C42.7587 61.9975 46.3749 60.9241 49.5624 59.117C49.5991 59.0983 49.6348 59.0776 49.6696 59.0545ZM39.7902 48.076C40.8931 48.076 41.7902 48.9732 41.7902 50.076C41.7902 51.1787 40.8929 52.076 39.7902 52.076C39.5019 52.076 39.2238 52.0149 38.9674 51.8978V48.254C39.2238 48.1372 39.5019 48.076 39.7902 48.076ZM40.2109 23.7436C42.0208 23.7436 43.4931 25.2159 43.4931 27.0258C43.4931 28.8357 42.0208 30.308 40.2109 30.308C39.7814 30.308 39.3601 30.2223 38.9674 30.0611V23.9904C39.3601 23.8291 39.7813 23.7436 40.2109 23.7436ZM48.71 54.9081C48.71 53.1241 50.1613 51.6729 51.9452 51.6729C52.7804 51.6729 53.5662 51.9922 54.1593 52.5508C52.7449 54.1899 51.0971 55.5979 49.2779 56.7355C48.9122 56.2016 48.71 55.5655 48.71 54.9081Z" fill="black" stroke="black" stroke-width="0.2"/>
<path d="M49.805 44.0234C52.3338 44.0234 54.3911 41.966 54.3911 39.4372C54.3911 36.9085 52.3338 34.8511 49.805 34.8511C47.2762 34.8511 45.2188 36.9085 45.2188 39.4372C45.2188 41.966 47.2762 44.0234 49.805 44.0234ZM49.805 37.0417C51.1259 37.0417 52.2005 38.1162 52.2005 39.4372C52.2005 40.7581 51.1259 41.8328 49.805 41.8328C48.4841 41.8328 47.4093 40.7581 47.4093 39.4372C47.4093 38.1162 48.4841 37.0417 49.805 37.0417Z" fill="black" stroke="black" stroke-width="0.2"/>
</svg>
