<svg width="32" height="32" viewBox="0 0 32 32" fill="none" xmlns="http://www.w3.org/2000/svg">
<path fill-rule="evenodd" clip-rule="evenodd" d="M9.64138 22.381L12.4472 21.645L12.718 21.8057C13.8562 22.4811 15.161 22.8385 16.4912 22.839H16.4943C20.5804 22.839 23.906 19.5133 23.9077 15.4255C23.9084 13.4446 23.1381 11.582 21.7384 10.1807C20.3387 8.77938 18.4773 8.00728 16.4972 8.00659C12.4079 8.00659 9.08219 11.332 9.08057 15.4195C9.07999 16.8203 9.47194 18.1845 10.214 19.3648L10.3903 19.6453L9.64138 22.381ZM20.6826 17.3464C20.838 17.4215 20.943 17.4722 20.9878 17.547C21.0435 17.64 21.0435 18.0862 20.8579 18.6069C20.6721 19.1274 19.7818 19.6026 19.3535 19.6665C18.9696 19.724 18.4837 19.7479 17.9498 19.5782C17.6261 19.4755 17.211 19.3384 16.6793 19.1088C14.59 18.2066 13.178 16.1816 12.9111 15.7989C12.8924 15.772 12.8794 15.7533 12.8721 15.7435L12.8703 15.7411C12.7523 15.5838 11.962 14.5294 11.962 13.4381C11.962 12.4115 12.4663 11.8734 12.6984 11.6257C12.7143 11.6087 12.729 11.5931 12.7421 11.5788C12.9463 11.3557 13.1878 11.2999 13.3364 11.2999C13.4849 11.2999 13.6337 11.3013 13.7635 11.3078C13.7795 11.3086 13.7962 11.3085 13.8134 11.3084C13.9433 11.3077 14.1052 11.3067 14.265 11.6904C14.3264 11.8381 14.4163 12.0569 14.5112 12.2878C14.7029 12.7547 14.9148 13.2706 14.9521 13.3452C15.0078 13.4568 15.045 13.5869 14.9707 13.7357C14.9595 13.758 14.9492 13.779 14.9394 13.7992C14.8836 13.9131 14.8425 13.9969 14.7478 14.1074C14.7106 14.1509 14.6721 14.1978 14.6336 14.2447C14.5569 14.338 14.4803 14.4314 14.4135 14.4979C14.3019 14.609 14.1858 14.7296 14.3158 14.9527C14.4458 15.1759 14.8931 15.9057 15.5556 16.4966C16.2678 17.1319 16.8868 17.4004 17.2006 17.5365C17.2619 17.5631 17.3115 17.5846 17.3479 17.6028C17.5707 17.7144 17.7007 17.6957 17.8307 17.547C17.9607 17.3983 18.3878 16.8962 18.5364 16.6732C18.6849 16.4501 18.8336 16.4873 19.0378 16.5616C19.2421 16.6361 20.3379 17.1752 20.5607 17.2867C20.6042 17.3085 20.6449 17.3281 20.6826 17.3464Z" fill="white"/>
<path fill-rule="evenodd" clip-rule="evenodd" d="M0.0976513 17.7778C0.0331259 17.1941 0 16.6009 0 16C0 7.16344 7.16344 0 16 0C24.8366 0 32 7.16344 32 16C32 16.6009 31.9669 17.1941 31.9023 17.7778H29.8882C29.962 17.1956 30 16.6022 30 16C30 8.26801 23.732 2 16 2C8.26801 2 2 8.26801 2 16C2 16.6022 2.03803 17.1956 2.11181 17.7778H0.0976513Z" fill="white"/>
<path fill-rule="evenodd" clip-rule="evenodd" d="M0.910156 21.3333C3.10662 27.5476 9.03323 31.9999 15.9997 31.9999C22.9662 31.9999 28.8928 27.5476 31.0893 21.3333H28.948C26.8506 26.4198 21.8433 29.9999 15.9997 29.9999C10.1562 29.9999 5.14881 26.4198 3.05143 21.3333H0.910156Z" fill="#F6ED08"/>
</svg>
