<svg width="32" height="32" viewBox="0 0 32 32" fill="none" xmlns="http://www.w3.org/2000/svg">
<path fill-rule="evenodd" clip-rule="evenodd" d="M9.64187 22.381L12.4477 21.645L12.7184 21.8057C13.8567 22.4811 15.1614 22.8385 16.4917 22.839H16.4947C20.5808 22.839 23.9065 19.5133 23.9082 15.4255C23.9089 13.4446 23.1385 11.582 21.7389 10.1807C20.3392 8.77938 18.4778 8.00728 16.4977 8.00659C12.4084 8.00659 9.08268 11.332 9.08106 15.4195C9.08048 16.8203 9.47243 18.1845 10.2145 19.3648L10.3908 19.6453L9.64187 22.381ZM20.6831 17.3464C20.8385 17.4215 20.9435 17.4722 20.9883 17.547C21.044 17.64 21.044 18.0862 20.8584 18.6069C20.6726 19.1274 19.7822 19.6026 19.354 19.6665C18.9701 19.724 18.4842 19.7479 17.9503 19.5782C17.6266 19.4755 17.2115 19.3384 16.6798 19.1088C14.5904 18.2066 13.1785 16.1816 12.9116 15.7989C12.8929 15.772 12.8799 15.7533 12.8726 15.7435L12.8708 15.7411C12.7528 15.5838 11.9625 14.5294 11.9625 13.4381C11.9625 12.4115 12.4668 11.8734 12.6989 11.6257C12.7148 11.6087 12.7295 11.5931 12.7426 11.5788C12.9468 11.3557 13.1883 11.2999 13.3369 11.2999C13.4854 11.2999 13.6342 11.3013 13.764 11.3078C13.78 11.3086 13.7967 11.3085 13.8139 11.3084C13.9438 11.3077 14.1057 11.3067 14.2654 11.6904C14.3269 11.8381 14.4168 12.0569 14.5116 12.2878C14.7034 12.7547 14.9153 13.2706 14.9526 13.3452C15.0083 13.4568 15.0454 13.5869 14.9712 13.7357C14.96 13.758 14.9497 13.779 14.9398 13.7992C14.8841 13.9131 14.843 13.9969 14.7483 14.1074C14.7111 14.1509 14.6726 14.1978 14.6341 14.2447C14.5574 14.338 14.4808 14.4314 14.414 14.4979C14.3024 14.609 14.1863 14.7296 14.3163 14.9527C14.4463 15.1759 14.8936 15.9057 15.5561 16.4966C16.2683 17.1319 16.8873 17.4004 17.2011 17.5365C17.2623 17.5631 17.312 17.5846 17.3484 17.6028C17.5712 17.7144 17.7012 17.6957 17.8312 17.547C17.9612 17.3983 18.3883 16.8962 18.5369 16.6732C18.6854 16.4501 18.834 16.4873 19.0383 16.5616C19.2426 16.6361 20.3383 17.1752 20.5612 17.2867C20.6047 17.3085 20.6454 17.3281 20.6831 17.3464Z" fill="black"/>
<path fill-rule="evenodd" clip-rule="evenodd" d="M0.0976513 17.7778C0.0331259 17.1941 0 16.6009 0 16C0 7.16344 7.16344 0 16 0C24.8366 0 32 7.16344 32 16C32 16.6009 31.9669 17.1941 31.9023 17.7778H29.8882C29.962 17.1956 30 16.6022 30 16C30 8.26801 23.732 2 16 2C8.26801 2 2 8.26801 2 16C2 16.6022 2.03803 17.1956 2.11181 17.7778H0.0976513Z" fill="black"/>
<path fill-rule="evenodd" clip-rule="evenodd" d="M0.910156 21.3333C3.10662 27.5476 9.03323 31.9999 15.9997 31.9999C22.9662 31.9999 28.8928 27.5476 31.0893 21.3333H28.948C26.8506 26.4198 21.8433 29.9999 15.9997 29.9999C10.1562 29.9999 5.14881 26.4198 3.05143 21.3333H0.910156Z" fill="#F6ED08"/>
</svg>
