<svg width="64" height="64" viewBox="0 0 64 64" fill="none" xmlns="http://www.w3.org/2000/svg">
<path d="M54.8729 43.2492C55.5633 43.2492 56.1229 42.6896 56.1229 41.9993C56.1229 41.309 55.5633 40.7494 54.8729 40.7494C54.1826 40.7494 53.623 41.309 53.623 41.9993C53.623 42.6896 54.1826 43.2492 54.8729 43.2492Z" fill="black"/>
<path d="M57.9917 47.4053C57.7662 47.1796 57.5556 46.9353 57.3657 46.6792C56.9544 46.1247 56.1717 46.0087 55.6172 46.4198C55.0628 46.831 54.9465 47.6138 55.3578 48.1682C55.6204 48.5223 55.9116 48.8601 56.2248 49.1735L57.4303 50.3756L50.3589 57.448L48.7249 55.8132C48.3902 55.4782 47.8948 55.3613 47.4455 55.511C44.627 56.4508 41.5705 55.7294 39.4691 53.6281C38.4778 52.6368 31.9013 46.0603 31.0485 45.2075C30.5613 44.7204 30.5613 43.9276 31.0485 43.4404C31.5355 42.9532 32.3286 42.9534 32.8168 43.4404C33.344 43.9672 34.2077 43.9135 34.6706 43.345C35.0722 42.852 35.0375 42.1256 34.5841 41.6724L32.8159 39.9053C32.3283 39.4178 32.3283 38.6245 32.8159 38.137C33.3035 37.6496 34.0969 37.6496 34.5843 38.137L36.3516 39.9044C36.8397 40.3925 37.6311 40.3925 38.1194 39.9044C38.6076 39.4163 38.6074 38.6249 38.1194 38.1367C36.8753 36.8926 35.827 35.8445 34.584 34.6014C34.0992 34.1172 34.091 33.3278 34.5851 32.8343C35.072 32.3469 35.8613 32.3439 36.3516 32.8348C38.7227 35.206 35.7188 32.2019 39.8863 36.3697C40.3744 36.8578 41.1659 36.8578 41.6541 36.3697C42.1422 35.8816 42.1422 35.0901 41.6541 34.6019L39.8867 32.8346C39.3993 32.347 39.3993 31.5537 39.8867 31.0662C40.3742 30.5787 41.1675 30.5787 41.6548 31.0661L45.1892 34.6016L45.1898 34.6022L48.7245 38.1369C49.2126 38.625 50.0041 38.625 50.4923 38.1369C50.9803 37.6488 50.9803 36.8574 50.4923 36.3692L47.8413 33.7183L48.7254 32.8341C49.2111 32.3477 50.0018 32.3426 50.4931 32.8347C50.7625 33.1112 51.0532 33.3685 51.4354 33.838C52.1279 34.6851 52.6651 35.6821 53.0322 36.8014C53.247 37.4562 53.9524 37.8149 54.6094 37.5994C55.2654 37.3842 55.6226 36.6782 55.4075 36.0222C55.113 35.1244 54.7282 34.2861 54.2598 33.5154L60.0564 30.6176C60.4799 30.406 60.7473 29.9732 60.7473 29.4997C60.7473 29.0262 60.4799 28.5935 60.0564 28.3818L49.5982 23.1532L53.1839 12.3963C53.3337 11.9472 53.2168 11.452 52.882 11.1173C52.5471 10.7827 52.0519 10.6657 51.6029 10.8153L40.846 14.401L35.6174 3.94283C35.4057 3.51937 34.973 3.25189 34.4995 3.25189C34.026 3.25189 33.5933 3.51937 33.3816 3.94271L29.4663 11.7723L26.2978 8.60384C23.7095 6.01555 20.0239 5.01262 16.5192 5.89593C15.125 4.50241 12 1.37741 10.9887 0.366112C10.501 -0.121725 9.7102 -0.1221 9.22186 0.365362L0.3688 9.20342C0.133818 9.43803 0.00182822 9.75638 0.00195321 10.0885C0.0020782 10.4205 0.134318 10.7388 0.369425 10.9733L6.00723 16.5948C7.13202 17.7205 7.75135 19.2903 7.75135 21.0147V23.1475C7.73597 25.8542 8.43079 28.4062 9.72694 30.4899L3.94265 33.382C3.51918 33.5938 3.2517 34.0266 3.2517 34.4999C3.2517 34.9734 3.51918 35.4061 3.94265 35.6179L14.4008 40.8464L10.8151 51.6034C10.6654 52.0524 10.7822 52.5477 11.1171 52.8824C11.4519 53.2171 11.9473 53.334 12.3961 53.1844L23.153 49.5986L28.3816 60.0568C28.5933 60.4803 29.0261 60.7478 29.4995 60.7478C29.973 60.7478 30.4057 60.4803 30.6174 60.0569L34.5328 52.2273L37.7013 55.3958C40.2896 57.9841 43.9749 58.9877 47.4796 58.1037C58.5129 69.1365 48.9595 59.5835 53.0101 63.6339C53.4978 64.1215 54.2883 64.1223 54.7769 63.6347L63.63 54.7967C63.865 54.5621 63.997 54.2438 63.9968 53.9117C63.9967 53.5797 63.8645 53.2613 63.6294 53.027L57.9917 47.4053ZM10.1042 3.01678L11.8732 4.78589L4.7987 11.8593L3.02159 10.0874L10.1042 3.01678ZM6.56882 13.6246L13.6408 6.5535L15.2743 8.187C15.6091 8.52185 16.1043 8.63884 16.5535 8.48898C19.3721 7.54893 22.4285 8.27049 24.5299 10.372C25.5167 11.3588 32.1049 17.947 32.9505 18.7924C33.4377 19.2796 33.4377 20.0724 32.9505 20.5595C32.4635 21.0465 31.6705 21.0465 31.1823 20.5595C30.7248 20.1026 29.9944 20.0686 29.4966 20.4853C28.9239 20.9653 28.9049 21.8179 29.4149 22.3275L31.1831 24.0946C31.6707 24.5821 31.6707 25.3754 31.1831 25.8629C30.6956 26.3506 29.9022 26.3505 29.4148 25.8629L27.6474 24.0955C27.1593 23.6074 26.3679 23.6074 25.8797 24.0955C25.3915 24.5836 25.3916 25.375 25.8797 25.8632C27.1237 27.1073 28.172 28.1554 29.415 29.3985C29.8999 29.8827 29.908 30.6721 29.4139 31.1656C28.9271 31.653 28.1378 31.656 27.6474 31.1651C25.2764 28.7939 28.2802 31.798 24.1127 27.6302C23.6246 27.1421 22.8332 27.1421 22.345 27.6302C21.8569 28.1183 21.8569 28.9098 22.345 29.398L24.1123 31.1653C24.5998 31.6529 24.5998 32.4462 24.1123 32.9337C23.6249 33.4214 22.8315 33.4212 22.3442 32.9338C22.3312 32.9208 15.292 25.8804 15.2746 25.863C14.7865 25.3749 13.9951 25.3749 13.5069 25.863C13.0187 26.3511 13.0188 27.1425 13.5069 27.6307L16.1578 30.2816L15.2738 31.1658C14.788 31.6522 13.9974 31.6573 13.506 31.1652C13.2378 30.8901 12.9393 30.6235 12.5621 30.1627C12.5588 30.1587 12.5551 30.1553 12.5518 30.1513C11.053 28.3362 10.2358 25.8544 10.2512 23.1548V21.015C10.2512 18.6232 9.37197 16.426 7.77422 14.8269L6.56882 13.6246ZM29.4998 56.7031L24.9043 47.5111C24.626 46.9547 23.9811 46.6874 23.3911 46.8842L13.9774 50.0221L17.1152 40.6083C17.312 40.0183 17.0449 39.3733 16.4884 39.0952L7.29663 34.4998L11.3036 32.4963C11.4813 32.6768 11.5387 32.7323 11.7379 32.9321C13.2024 34.3984 15.5764 34.4002 17.0421 32.9327L17.9254 32.0493L20.5765 34.7013C22.0389 36.1636 24.4178 36.1636 25.8802 34.7013C26.225 34.3565 26.4875 33.9602 26.6696 33.5374C28.0838 34.3497 29.9452 34.1712 31.1816 32.9333C32.4317 31.6849 32.5913 29.8204 31.787 28.4202C32.2098 28.2379 32.606 27.9756 32.9509 27.6307C34.172 26.4096 34.3724 24.5492 33.5537 23.117C33.9768 22.9348 34.3733 22.6724 34.7182 22.3274C36.1801 20.8655 36.1801 18.4868 34.7182 17.0249L31.3294 13.6361L34.4993 7.29719L39.0948 16.4892C39.3729 17.0456 40.0177 17.3127 40.6079 17.1161L50.0217 13.9782L46.8838 23.3919C46.6871 23.982 46.9542 24.627 47.5106 24.9051L56.7023 29.5003L52.6941 31.5041C52.6747 31.4843 52.6563 31.4633 52.6368 31.4438L52.2611 31.0682C50.7966 29.6018 48.4227 29.6001 46.9569 31.0676L46.0735 31.951L43.4224 29.299C42.7141 28.5908 41.7724 28.2008 40.7706 28.2008C39.7688 28.2008 38.827 28.5908 38.1189 29.2991C37.774 29.6439 37.5115 30.0402 37.3294 30.463C36.7688 30.141 36.1319 29.9685 35.4681 29.9685C34.4663 29.9685 33.5246 30.3591 32.8174 31.0671C31.5674 32.3155 31.4078 34.18 32.2121 35.5802C31.7892 35.7623 31.393 36.0248 31.0482 36.3697C29.827 37.5908 29.6265 39.4513 30.4453 40.8836C30.0222 41.0657 29.6258 41.3282 29.2808 41.673C27.8189 43.1349 27.8189 45.5136 29.2808 46.9755L32.6697 50.3643L29.4998 56.7031ZM53.8947 60.9832L52.1269 59.2154L59.2003 52.1408L60.9773 53.9128L53.8947 60.9832Z" fill="black"/>
</svg>
