<svg width="62" height="60" viewBox="0 0 62 60" fill="none" xmlns="http://www.w3.org/2000/svg">
<path d="M61 17.2197C61 27.7238 61 38.2279 61 48.732C60.9765 48.7555 60.9413 48.7907 60.9296 48.8259C60.1548 51.6896 58.4643 52.9806 55.5177 52.9806C47.2767 52.9806 39.0356 52.9806 30.7946 52.9806C30.548 52.9806 30.3015 52.9806 30.1019 52.9806C30.055 53.1097 30.0315 53.1449 30.0315 53.1801C30.0198 53.2388 30.008 53.2975 30.0198 53.3561C30.1841 55.0227 29.2802 56.0672 27.9067 56.7245C26.8384 57.2291 25.7231 57.6986 24.5844 57.9685C18.656 59.3417 12.7042 59.3182 6.76404 58.0507C5.17922 57.7103 3.62962 57.2057 2.31481 56.2081C1.43436 55.5508 1 54.7176 1 53.5909C1.02348 45.8214 1.02348 38.0518 1 30.2823C1 29.2495 1.36392 28.428 2.18568 27.8646C2.89004 27.3835 3.6531 26.9844 4.4279 26.6323C4.82704 26.4445 5.01487 26.3037 5.01487 25.8108C4.99139 19.9543 5.00313 14.0978 5.00313 8.24137C5.00313 4.05147 8.03189 1.01174 12.2346 1C26.0636 1 39.8808 1 53.7098 1C55.7994 1 57.0086 2.22059 57.0086 4.3214C57.0086 7.03252 57.0086 9.74363 57.0086 12.4665C57.0086 12.6777 57.0086 12.889 57.0086 13.0768C58.793 13.5462 60.0139 14.5673 60.6713 16.2339C60.8004 16.5507 60.8943 16.8911 61 17.2197ZM59.0043 37.9697C58.6991 37.9697 58.4878 37.9697 58.2765 37.9697C56.7738 37.9697 55.2712 38.0049 53.7685 37.958C51.3385 37.8875 49.2489 35.9276 49.0376 33.5685C48.8028 30.9161 50.4228 28.604 52.9468 28.1111C53.6981 27.9585 54.4964 27.9937 55.2712 27.982C56.4921 27.9585 57.713 27.982 58.9926 27.982C58.9926 27.7238 58.9926 27.536 58.9926 27.3482C58.9926 24.3437 58.9926 21.3392 58.9926 18.3347C58.9926 16.1987 57.7951 15.0015 55.6586 15.0015C41.2074 15.0015 26.7562 14.9898 12.3168 15.0015C10.415 15.0015 8.74799 14.4499 7.32753 13.1941C7.25709 13.1237 7.15144 13.0885 7.03404 13.0181C7.03404 17.3019 7.03404 21.5387 7.03404 25.799C7.24535 25.7756 7.42144 25.7756 7.58579 25.7404C12.5633 24.7545 17.5525 24.7545 22.5535 25.5643C24.5375 25.8812 26.4979 26.3624 28.2471 27.4304C29.4328 28.1463 30.055 29.1322 30.0432 30.5992C29.9963 37.1129 30.0198 43.6384 30.0198 50.1638C30.0198 50.4103 30.0198 50.6568 30.0198 50.9384C30.2545 50.9502 30.4306 50.9619 30.595 50.9619C38.9887 50.9619 47.3823 50.9619 55.7877 50.9619C57.7951 50.9619 59.016 49.7296 59.0278 47.6992C59.0278 44.6712 59.0278 41.6432 59.0278 38.6269C59.0043 38.4392 59.0043 38.2396 59.0043 37.9697ZM54.9425 7.00904C54.9777 6.86821 55.0012 6.833 55.0012 6.79779C55.0012 6.05839 55.0129 5.319 55.0129 4.56787C55.0129 3.24165 54.7664 3.00693 53.4398 3.00693C41.4891 3.00693 29.5384 3.00693 17.5878 3.00693C15.5803 3.00693 13.5611 2.95998 11.5537 3.04214C8.79495 3.1595 6.64664 5.88235 7.05752 8.61693C7.45666 11.2576 9.48758 12.9946 12.2229 12.9946C26.2866 12.9946 40.3387 12.9946 54.4025 12.9946C54.5903 12.9946 54.7781 12.9711 54.9777 12.9711C54.9777 11.6332 54.9777 10.3304 54.9777 9.00423C54.6959 9.00423 54.4612 9.00423 54.2381 9.00423C39.6695 9.00423 25.101 9.00423 10.5441 9.00423C9.53453 9.00423 9.05322 8.68735 9.02974 8.01837C9.00626 7.33766 9.49932 7.00904 10.5559 7.00904C24.514 7.00904 38.4839 7.00904 52.442 7.00904C53.252 7.00904 54.0855 7.00904 54.9425 7.00904ZM15.5099 32.9817C15.5099 33.0404 15.5216 33.0873 15.5216 33.146C17.9634 32.8761 20.4052 32.6531 22.8235 32.301C24.4436 32.0663 26.0284 31.5968 27.4136 30.6696C28.1532 30.1767 28.1767 29.7425 27.4136 29.3082C26.5566 28.827 25.641 28.3693 24.7018 28.1228C18.7734 26.5854 12.7981 26.5736 6.83447 27.9937C5.68401 28.2637 4.58051 28.8153 3.51223 29.3669C2.83134 29.719 2.84308 30.2002 3.50049 30.5992C4.15789 30.9983 4.86226 31.3621 5.5901 31.6086C8.80669 32.7118 12.1524 32.9465 15.5099 32.9817ZM27.9888 32.747C23.9505 34.6248 19.7361 34.9769 15.4864 34.9652C11.225 34.9652 6.99883 34.6248 2.9957 32.7235C2.9957 33.7211 3.01917 34.6483 2.98396 35.5872C2.96048 36.0801 3.14831 36.4557 3.55919 36.6435C4.45138 37.066 5.33183 37.5707 6.28272 37.8171C12.082 39.3546 17.9282 39.3663 23.7744 38.0636C24.9718 37.7936 26.1223 37.2538 27.261 36.7491C27.5662 36.62 27.9301 36.2092 27.9654 35.9041C28.0475 34.9065 27.9888 33.862 27.9888 32.747ZM3.00743 44.7416C3.00743 45.6923 3.04265 46.596 2.9957 47.4879C2.96048 48.0865 3.18353 48.4973 3.67658 48.7202C4.59225 49.1428 5.50792 49.624 6.47055 49.8704C12.1055 51.314 17.7873 51.3375 23.4574 50.1286C24.7605 49.8587 25.9932 49.2719 27.2258 48.7555C27.531 48.6264 27.9067 48.2273 27.9419 47.9222C28.0241 46.8776 27.9771 45.8331 27.9771 44.7299C23.9857 46.5842 19.7713 46.9363 15.5334 46.9363C11.272 46.9715 7.04578 46.596 3.00743 44.7416ZM27.9888 50.7389C23.9505 52.605 19.7243 52.9571 15.4629 52.9571C11.2015 52.9571 6.98709 52.5933 3.00743 50.7389C3.00743 51.7248 3.03091 52.6402 2.9957 53.5556C2.97222 54.0955 3.17179 54.4828 3.62962 54.6941C4.54529 55.1166 5.44923 55.6095 6.4236 55.856C12.2933 57.3582 18.1982 57.3582 24.0796 55.9968C25.1831 55.7386 26.2397 55.2222 27.2727 54.7528C27.578 54.6119 27.9302 54.2129 27.9536 53.896C28.0475 52.8632 27.9888 51.8304 27.9888 50.7389ZM3.00743 38.7326C3.00743 39.695 3.05439 40.5869 2.9957 41.4789C2.96048 42.1009 3.207 42.5234 3.7118 42.7582C4.62747 43.1807 5.54314 43.6501 6.51751 43.8966C12.0585 45.3284 17.6347 45.305 23.2227 44.2369C24.6431 43.967 26.0284 43.568 27.2727 42.7816C27.5545 42.6056 27.9302 42.3122 27.9536 42.0422C28.0358 40.9742 27.9888 39.8827 27.9888 38.756C23.974 40.6339 19.7595 40.9742 15.5216 40.9742C11.2485 40.9742 7.0223 40.6104 3.00743 38.7326ZM58.9691 35.9628C58.9691 33.9441 58.9691 31.9841 58.9691 30.0007C57.1847 30.0007 55.4238 29.9303 53.6746 30.0241C52.125 30.1063 50.9863 31.4912 51.0215 33.0639C51.045 34.6013 52.2542 35.9158 53.7685 35.9628C55.4707 35.998 57.1964 35.9628 58.9691 35.9628Z" fill="black" stroke="black" stroke-width="0.4"/>
<path d="M48.5088 18.9932C46.0904 18.9932 43.6721 19.005 41.2538 18.9698C40.9016 18.9698 40.4673 18.8054 40.2325 18.5589C40.0447 18.3593 39.986 17.8428 40.1268 17.608C40.2912 17.3262 40.6903 17.0562 41.0308 17.0093C41.7586 16.9154 42.5099 16.974 43.2495 16.974C47.3466 16.974 51.4436 16.974 55.5407 16.974C55.658 16.974 55.7754 16.974 55.8928 16.974C56.562 17.0093 57.0198 17.4319 56.9963 18.0071C56.9729 18.5706 56.5385 18.958 55.8928 18.9698C53.9793 18.9815 52.0658 18.9698 50.1523 18.9698C49.6123 18.9815 49.0605 18.9815 48.5088 18.9932C48.5088 18.9815 48.5088 18.9815 48.5088 18.9932Z" fill="black"/>
<path d="M48.5088 18.9932C46.0904 18.9932 43.6721 19.005 41.2538 18.9698C40.9016 18.9698 40.4673 18.8054 40.2325 18.5589C40.0447 18.3593 39.986 17.8428 40.1268 17.608C40.2912 17.3262 40.6903 17.0562 41.0308 17.0093C41.7586 16.9154 42.5099 16.974 43.2495 16.974C47.3466 16.974 51.4436 16.974 55.5407 16.974C55.658 16.974 55.7754 16.974 55.8928 16.974C56.562 17.0093 57.0198 17.4319 56.9963 18.0071C56.9729 18.5706 56.5385 18.958 55.8928 18.9698C53.9793 18.9815 52.0658 18.9698 50.1523 18.9698C49.6123 18.9815 49.0605 18.9815 48.5088 18.9932ZM48.5088 18.9932C48.5088 18.9815 48.5088 18.9815 48.5088 18.9932Z" stroke="black" stroke-width="0.4"/>
<path d="M35.9715 18.9806C35.6428 18.9806 35.3024 18.9923 34.9737 18.9806C34.3984 18.9454 34.0228 18.558 34.011 18.0062C33.9993 17.478 34.3397 17.0436 34.8798 17.0084C35.6193 16.9614 36.3589 16.9732 37.0985 17.0084C37.615 17.0319 37.9907 17.5132 37.9907 18.0062C37.979 18.5228 37.5681 18.9454 37.0163 18.9806C36.6759 18.9923 36.3237 18.9806 35.9715 18.9806Z" fill="black" stroke="black" stroke-width="0.4"/>
<path d="M53.0176 32.9707C53.0176 32.4072 53.4754 31.9729 54.0272 31.9846C54.5437 31.9963 54.9898 32.4424 55.0016 32.959C55.0133 33.499 54.5555 33.9686 54.0037 33.9686C53.4402 33.9803 53.0176 33.5342 53.0176 32.9707Z" fill="black" stroke="black" stroke-width="0.4"/>
</svg>
