<svg width="60" height="61" viewBox="0 0 60 61" fill="none" xmlns="http://www.w3.org/2000/svg">
<path d="M41.6768 27.5309C42.1351 27.0736 42.1351 26.3306 41.6768 25.8738C41.2195 25.4155 40.478 25.4155 40.0197 25.8738C39.5624 26.3306 39.5624 27.0736 40.0197 27.5309C40.478 27.9891 41.2195 27.9891 41.6768 27.5309Z" fill="black"/>
<path d="M1.17188 60.0582H58.8282C59.302 60.0582 59.7295 59.773 59.9108 59.3349C60.0921 58.8969 59.9918 58.3929 59.6568 58.0578L2.00043 0.40189C1.66535 0.0663484 1.16135 -0.0334442 0.723267 0.147831C0.285645 0.329105 0 0.7562 0 1.23044V58.8863C0 59.5336 0.524598 60.0582 1.17188 60.0582ZM2.34375 4.05943L11.77 13.4857L9.28346 15.9709C8.8257 16.4287 8.8257 17.1707 9.28346 17.6285C9.74031 18.0858 10.4828 18.0867 10.9406 17.6285L13.4271 15.1428L18.3989 20.1151L15.9128 22.6003C15.455 23.058 15.455 23.8001 15.9123 24.2578C16.3696 24.7151 17.1121 24.7161 17.5699 24.2578L20.0565 21.7722L25.0278 26.7439L22.5421 29.2301C22.0844 29.6874 22.0844 30.4294 22.5421 30.8872C22.9999 31.3449 23.7415 31.3449 24.1992 30.8872L26.6854 28.4011L31.6571 33.3733L29.1715 35.8594C28.7137 36.3167 28.7137 37.0588 29.1715 37.5165C29.6292 37.9743 30.3708 37.9743 30.8286 37.5165L33.3147 35.0309L38.2865 40.0022L35.8008 42.4888C35.3431 42.9465 35.3431 43.6886 35.8008 44.1463C36.2586 44.6036 37.0006 44.6036 37.4584 44.1459L39.9436 41.6597L44.9154 46.6315L42.4297 49.1181C41.9724 49.5759 41.9724 50.3179 42.4302 50.7752C42.8875 51.233 43.63 51.233 44.0877 50.7752L46.5729 48.2886L55.9988 57.7145H2.34375V4.05943Z" fill="black"/>
<path d="M12.0786 24.4239C11.7435 24.0888 11.2395 23.9886 10.8014 24.1698C10.3638 24.3511 10.0781 24.7787 10.0781 25.2524V48.8081C10.0781 49.4553 10.6027 49.9799 11.25 49.9799H34.8056C35.2799 49.9799 35.707 49.6948 35.8887 49.2567C36.07 48.819 35.9693 48.3146 35.6346 47.9795L12.0786 24.4239ZM12.4219 47.6366V28.0819L31.9766 47.6366H12.4219Z" fill="black"/>
<path d="M36.7052 24.2167C37.163 24.6744 37.9045 24.6744 38.3628 24.2167C38.8201 23.7593 38.8201 23.0173 38.3628 22.5595L33.3901 17.5873C32.9328 17.1295 32.1907 17.1295 31.733 17.5873C31.2752 18.0446 31.2752 18.7867 31.733 19.2444L36.7052 24.2167Z" fill="black"/>
<path d="M17.789 12.0022L50.6839 44.8967C52.0572 46.2709 54.2819 46.2709 55.6561 44.8967L58.9704 41.5829C60.3404 40.2128 60.3404 37.9821 58.9704 36.6102L26.0759 3.71572C25.9472 3.58709 25.7902 3.49005 25.6177 3.43283L15.6741 0.118612C15.2534 -0.0214639 14.7888 0.0879418 14.4752 0.401968C14.1612 0.715537 14.0518 1.17971 14.1919 1.60085L17.5061 11.5444C17.5637 11.717 17.6603 11.8735 17.789 12.0022ZM57.3123 38.2673C57.7696 38.7246 57.7696 39.4689 57.3128 39.9253L53.999 43.2395C53.5413 43.6973 52.7992 43.6978 52.341 43.2395L49.8018 40.7003L54.7736 35.7281L57.3123 38.2673ZM53.1165 34.071L48.1442 39.0432L46.4871 37.3857L51.4594 32.4143L53.1165 34.071ZM26.0228 6.97729L49.8018 30.7563L44.83 35.7286L21.0505 11.9491L26.0228 6.97729ZM24.2407 5.44424L19.5175 10.167L17.1563 3.08309L24.2407 5.44424Z" fill="black"/>
</svg>
