<svg width="48" height="62" viewBox="0 0 48 62" fill="none" xmlns="http://www.w3.org/2000/svg">
<path d="M47.6515 51.3161C47.5137 42.89 38.8986 40.4005 32.608 38.5828C31.8741 38.3708 31.1682 38.1667 30.5068 37.963V34.487C31.7928 33.6809 32.9197 32.6435 33.8288 31.4334H37.6607C39.5358 31.4334 41.0615 29.9077 41.0615 28.0326V23.9159C41.2888 23.386 41.4151 22.8028 41.4151 22.1904V20.9101C41.4151 20.2983 41.2888 19.7155 41.0615 19.1859V17.0622C41.0615 7.65412 33.4076 0 23.9997 0C14.5935 0 6.94124 7.65412 6.94124 17.0623V19.1253C6.94124 19.1415 6.94305 19.1571 6.94366 19.1732C6.71285 19.7063 6.58425 20.2933 6.58425 20.9102V22.1905C6.58425 24.6108 8.55179 26.5799 10.9702 26.5799H11.9709C12.664 29.9037 14.7046 32.7386 17.4925 34.4864V37.963C16.831 38.1667 16.1253 38.3706 15.3913 38.5828C9.10071 40.4005 0.485583 42.8901 0.347777 51.3161C0.347656 51.3228 0.347656 51.3293 0.347656 51.336V60.7891C0.347656 61.4579 0.889916 62 1.5586 62H5.1488C5.81748 62 6.35974 61.4579 6.35974 60.7891C6.35974 60.1203 5.81748 59.5781 5.1488 59.5781H2.76942V51.346C2.8204 48.4062 4.17084 46.2024 7.0191 44.4108C8.8986 43.2286 11.1964 42.3862 13.4613 41.6816L16.3871 47.382C16.7132 48.0174 17.5481 48.2333 18.1415 47.8329L19.446 46.953L20.566 51.1626L18.6471 59.578H16.0227C15.354 59.578 14.8118 60.1201 14.8118 60.7889C14.8118 61.4577 15.354 61.9999 16.0227 61.9999H46.4407C47.1094 61.9999 47.6517 61.4577 47.6517 60.7889V51.3358C47.6517 51.3293 47.6517 51.3228 47.6515 51.3161ZM31.9357 40.9094C32.0155 40.9324 32.0966 40.956 32.177 40.9793L30.0837 45.0618L26.1662 42.4202L29.4855 40.1812C30.2566 40.4239 31.0767 40.6611 31.9357 40.9094ZM24.0005 43.8809L26.4287 45.5184L25.2552 49.9293H22.7442L21.571 45.5197L24.0005 43.8809ZM24.0003 40.9598L19.9143 38.2045V35.6552C21.1932 36.1075 22.5677 36.3556 23.9995 36.3556C25.4312 36.3556 26.806 36.1084 28.0848 35.6561V38.2045L24.0003 40.9598ZM33.8651 17.2838C33.8485 17.2732 33.832 17.2627 33.8154 17.2522C31.3307 15.6704 29.1847 14.3044 25.8221 15.2665C25.7909 15.2754 25.7599 15.2856 25.7295 15.297C25.0166 15.5647 24.3684 15.8143 23.7414 16.0556C19.912 17.5297 17.8212 18.3348 14.1341 18.2311V17.2614C14.1341 11.8213 18.5597 7.39559 23.9995 7.39559C29.4393 7.39559 33.865 11.8213 33.865 17.2614V17.2838H33.8651ZM38.6396 28.0326C38.6396 28.5724 38.2005 29.0115 37.6607 29.0115H35.2475C35.5883 28.2391 35.8522 27.4254 36.0286 26.5798H37.0293C37.5978 26.5798 38.1407 26.4699 38.6397 26.2719V28.0326H38.6396ZM38.9932 22.1904C38.9932 23.2753 38.1122 24.1579 37.0292 24.1579H36.2859C36.2861 24.1279 36.2871 18.9459 36.2871 18.9459H37.0293C38.1122 18.9459 38.9933 19.827 38.9933 20.9101V22.1904H38.9932ZM10.9702 24.1581C9.88722 24.1581 9.00614 23.2754 9.00614 22.1905V20.9102C9.00614 19.8271 9.8871 18.946 10.9702 18.946H11.7123C11.7123 18.946 11.7133 24.128 11.7136 24.1581H10.9702ZM11.735 16.524H10.97C10.4039 16.524 9.86324 16.633 9.36603 16.8292C9.49112 8.86361 16.007 2.42188 23.9997 2.42188C31.9947 2.42188 38.5123 8.86434 38.6366 16.8305C38.1385 16.6335 37.5965 16.524 37.0292 16.524H36.2642C35.8815 10.0905 30.5272 4.9737 23.9997 4.9737C17.472 4.9737 12.1177 10.0907 11.735 16.524ZM14.207 25.2461C14.2069 25.2449 14.2066 25.2437 14.2065 25.2425C14.1606 24.857 14.1342 24.4656 14.1342 24.0681V20.6529C18.2772 20.7539 20.7486 19.803 24.6114 18.316C25.2198 18.0818 25.8486 17.8397 26.5337 17.5822C28.8211 16.9436 30.1373 17.7817 32.5149 19.2953C32.9275 19.5579 33.38 19.8458 33.8651 20.1414V24.0681C33.8651 25.8689 33.3778 27.5569 32.5317 29.0116H23.9997C23.331 29.0116 22.7887 29.5538 22.7887 30.2226C22.7887 30.8914 23.331 31.4335 23.9997 31.4335H30.5538C28.8098 32.9873 26.5136 33.9339 23.9997 33.9339C18.9586 33.9338 14.7913 30.1324 14.207 25.2461ZM17.9186 45.0619L15.8229 40.979C15.9031 40.9559 15.9839 40.9324 16.0636 40.9094C16.9227 40.6611 17.7427 40.4238 18.5141 40.1811L21.8347 42.4204L17.9186 45.0619ZM21.1312 59.5781L22.7792 52.3512H25.2205L26.871 59.5781H21.1312ZM45.2298 59.5781H29.3553L27.4333 51.1624L28.5538 46.9513L29.8615 47.8331C30.4551 48.2333 31.29 48.0174 31.616 47.3816L34.5385 41.6818C36.8033 42.3865 39.101 43.2287 40.9803 44.4108C43.8285 46.2023 45.179 48.4062 45.23 51.346V59.5781H45.2298Z" fill="black"/>
<path d="M40.4475 53.5229H34.3447C33.676 53.5229 33.1338 54.065 33.1338 54.7338C33.1338 55.4026 33.676 55.9448 34.3447 55.9448H40.4475C41.1162 55.9448 41.6584 55.4026 41.6584 54.7338C41.6584 54.065 41.1163 53.5229 40.4475 53.5229Z" fill="black"/>
<path d="M10.5859 59.578C9.91726 59.578 9.375 60.1201 9.375 60.7889C9.375 61.4577 9.91726 61.9999 10.5859 61.9999H10.5893C11.258 61.9999 11.7984 61.4577 11.7984 60.7889C11.7984 60.1201 11.2546 59.578 10.5859 59.578Z" fill="black"/>
</svg>
