<svg width="64" height="64" viewBox="0 0 64 64" fill="none" xmlns="http://www.w3.org/2000/svg">
<path d="M60.6203 30.3898C60.6198 29.7001 60.0601 29.1406 59.37 29.1406H56.0499C55.4718 26.8978 54.5876 24.7624 53.4123 22.7699L55.76 20.4219C56.2481 19.9337 56.2481 19.1422 55.76 18.6541L52.2238 15.1179C51.7355 14.6297 50.9442 14.6297 50.4559 15.1179C49.9677 15.606 49.9677 16.3975 50.4559 16.8856L53.1084 19.538L50.945 21.7014C50.5284 22.118 50.4592 22.7689 50.7791 23.2638C52.2421 25.5275 53.2715 28.0136 53.8388 30.6531C53.9625 31.2291 54.4716 31.6405 55.0608 31.6405H58.1203L58.1229 39.0919H55.0608C54.4716 39.0919 53.9624 39.5033 53.8388 40.0793C53.2715 42.719 52.2421 45.2053 50.7793 47.4689C50.4594 47.9637 50.5285 48.6147 50.9451 49.0313L53.117 51.2032L47.8509 56.4751L45.6762 54.3004C45.2595 53.8838 44.6085 53.8147 44.1139 54.1346C41.8504 55.5976 39.3641 56.6269 36.7242 57.1942C36.1483 57.3179 35.737 57.8271 35.737 58.4163V61.4958L28.2855 61.4985V58.4163C28.2855 57.8272 27.8741 57.3179 27.2981 57.1942C24.6584 56.6269 22.1721 55.5976 19.9084 54.1346C19.4137 53.8147 18.7628 53.8838 18.3461 54.3004L16.1628 56.4837L10.8942 51.2147L13.0774 49.0314C13.4941 48.6148 13.5632 47.9638 13.2433 47.4689C11.7803 45.2053 10.7508 42.7189 10.1837 40.0792C10.0599 39.5032 9.55067 39.0918 8.96154 39.0918H5.87929L5.88191 31.6404H8.96142C9.55054 31.6404 10.0598 31.229 10.1834 30.653C10.7507 28.0134 11.78 25.5271 13.2432 23.2635C13.5631 22.7686 13.4939 22.1176 13.0773 21.701L10.9022 19.5259L12.8494 17.5785C13.3376 17.0904 13.3376 16.2989 12.8494 15.8107C12.3612 15.3226 11.5699 15.3226 11.0815 15.8107L8.25054 18.6417C8.01617 18.8761 7.88441 19.1941 7.88441 19.5256C7.88441 19.8571 8.01617 20.1751 8.25054 20.4095L10.6103 22.7693C9.43479 24.7618 8.55042 26.8973 7.97254 29.1401H4.63253C3.94241 29.1401 3.38278 29.6995 3.38253 30.3898L3.37891 40.341C3.37878 40.6727 3.51041 40.9908 3.74491 41.2253C3.97928 41.4598 4.29741 41.5915 4.62891 41.5915H7.97254C8.55054 43.8344 9.43479 45.97 10.6103 47.9627L8.24241 50.3306C7.75429 50.8187 7.75429 51.6102 8.24241 52.0984L15.2792 59.1352C15.7674 59.6232 16.5587 59.6232 17.0471 59.1352L19.4149 56.7673C21.4073 57.9428 23.5429 58.8271 25.7859 59.4049V62.7486C25.7859 63.0802 25.9177 63.3982 26.1523 63.6326C26.3867 63.867 26.7046 63.9986 27.036 63.9986C27.0361 63.9986 27.0363 63.9986 27.0363 63.9986L36.9878 63.995C37.678 63.9947 38.2373 63.4351 38.2373 62.745V59.4048C40.4806 58.8267 42.6157 57.9426 44.6082 56.7671L46.968 59.1268C47.2025 59.3612 47.5204 59.4929 47.8519 59.4929H47.8522C48.1839 59.4929 48.5019 59.361 48.7362 59.1263L55.7691 52.0857C56.2568 51.5974 56.2565 50.8063 55.7686 50.3184L53.4126 47.9623C54.588 45.9699 55.4723 43.8345 56.0501 41.5915H59.3739C59.7054 41.5915 60.0235 41.4598 60.2579 41.2253C60.4924 40.9908 60.624 40.6727 60.6239 40.341L60.6203 30.3898Z" fill="black"/>
<path d="M44.5766 22.8498L44.5481 22.8213C44.0576 22.3353 43.2664 22.3387 42.7801 22.8291C42.2941 23.3193 42.2978 24.1108 42.788 24.5968L42.8009 24.6097C43.0453 24.8563 43.3669 24.9797 43.6888 24.9797C44.0069 24.9797 44.325 24.8591 44.5688 24.6176C45.059 24.1316 45.0625 23.3401 44.5766 22.8498Z" fill="black"/>
<path d="M62.7501 5.00166H47.2497V1.25165C47.2497 0.561274 46.69 0.00164795 45.9997 0.00164795H18.0004C17.3102 0.00164795 16.7504 0.561274 16.7504 1.25165V5.00153H1.25C0.559751 5.00153 0 5.56116 0 6.25153V11.2514C0 11.9418 0.559751 12.5014 1.25 12.5014H16.7505V13.2514C16.7505 13.6002 16.8937 13.9152 17.1239 14.1419L25.8968 22.9148C26.0794 23.0973 26.3128 23.2166 26.5636 23.2608V27.9991C26.5636 28.439 26.7948 28.8465 27.1724 29.0721L30.7509 31.2103V36.0025C30.7509 38.3457 32.6573 40.2518 35.0003 40.2518H38.0007C38.9655 40.2518 39.7502 41.0367 39.7502 42.0014C39.7502 42.966 38.9655 43.7509 38.0007 43.7509H30.2509C27.9078 43.7509 26.0016 45.6571 26.0016 48.0002V49.4039C24.2373 48.649 22.6157 47.557 21.2178 46.1592C18.3375 43.2791 16.7513 39.4493 16.7513 35.3761C16.7513 31.3028 18.3375 27.4733 21.2178 24.5929C21.7059 24.1048 21.7059 23.3133 21.2178 22.8252C20.7297 22.3371 19.9384 22.3371 19.4499 22.8252C16.0975 26.1776 14.2512 30.635 14.2512 35.376C14.2512 40.1171 16.0975 44.5744 19.4499 47.9267C22.8023 51.2792 27.2596 53.1255 32.0007 53.1255C36.7418 53.1255 41.1991 51.2791 44.5515 47.9267C50.2096 42.2686 51.3819 33.4761 47.402 26.5446C47.0583 25.9459 46.2943 25.7393 45.6956 26.0829C45.097 26.4267 44.8903 27.1907 45.2341 27.7893C48.6529 33.7437 47.6452 41.2975 42.7837 46.1589C39.9036 49.039 36.0738 50.6254 32.0006 50.6254C30.8071 50.6254 29.6351 50.4881 28.5012 50.2232V48C28.5012 47.0354 29.2859 46.2505 30.2507 46.2505H38.0005C40.3436 46.2505 42.2498 44.3442 42.2498 42.0011C42.2498 39.658 40.3435 37.7517 38.0005 37.7517H35.0001C34.0353 37.7517 33.2506 36.9668 33.2506 36.0022V31.2101L36.8291 29.0718C37.2067 28.8462 37.438 28.4387 37.438 27.9988V23.2606C37.6887 23.2163 37.9221 23.0971 38.1047 22.9146L46.8841 14.1352C46.8862 14.133 46.8871 14.1309 46.8891 14.1288C47.1118 13.903 47.2495 13.5933 47.2495 13.2512V12.5012H62.7499C63.4401 12.5012 63.9999 11.9415 63.9999 11.2512V6.25153C64.0001 5.56116 63.4404 5.00166 62.7501 5.00166ZM16.7505 10.0014H2.50001V7.50141H16.7505V10.0014ZM34.9383 27.2898L32.0009 29.0451L29.0636 27.2898V23.2809H34.9384V27.2898H34.9383ZM36.7033 20.7808H36.1883H27.8136H27.2986L21.019 14.5013H42.9828L36.7033 20.7808ZM44.7498 12.0014H19.2504V8.50154H33.7717C34.4619 8.50154 35.0217 7.94191 35.0217 7.25154C35.0217 6.56116 34.4619 6.00153 33.7717 6.00153H19.2504V2.50165H44.7498V12.0014ZM61.5001 10.0014H47.2497V7.50141H61.5001V10.0014Z" fill="black"/>
<path d="M39.0859 6.00208H39.0674C38.3771 6.00208 37.8174 6.5617 37.8174 7.25208C37.8174 7.94246 38.377 8.50208 39.0674 8.50208H39.0859C39.7761 8.50208 40.3359 7.94246 40.3359 7.25208C40.3359 6.5617 39.7761 6.00208 39.0859 6.00208Z" fill="black"/>
</svg>
