<svg width="65" height="63" viewBox="0 0 65 63" fill="none" xmlns="http://www.w3.org/2000/svg">
<path d="M64.8747 34.5026C64.2911 28.6324 61.6686 23.0983 57.49 18.9196C53.919 15.3487 49.5482 13.054 44.9491 12.0337V8.80801C46.8275 8.34068 48.2238 6.64038 48.2238 4.61938C48.2238 2.23922 46.2875 0.302902 43.9073 0.302902H34.7665C32.3864 0.302902 30.4501 2.23922 30.4501 4.61938C30.4501 6.64025 31.8463 8.34056 33.7246 8.80801V12.0427C29.1396 13.0674 24.7833 15.3589 21.2225 18.9197C20.4432 19.699 19.7246 20.5164 19.0669 21.366C19.035 21.3636 19.0031 21.3612 18.9706 21.3612H9.9237C9.22265 21.3612 8.65415 21.9296 8.65415 22.6308C8.65415 23.3319 9.22265 23.9003 9.9237 23.9003H17.3394C16.4086 25.4587 15.658 27.0953 15.0867 28.78H1.26955C0.568505 28.78 0 29.3483 0 30.0495C0 30.7507 0.568505 31.3191 1.26955 31.3191H14.3693C14.0034 32.9252 13.7934 34.5597 13.7392 36.1988H8.12513C7.42408 36.1988 6.85558 36.7672 6.85558 37.4684C6.85558 38.1696 7.42408 38.7379 8.12513 38.7379H13.7797C13.8869 40.3812 14.1511 42.0159 14.5724 43.6177H6.34776C5.64671 43.6177 5.0782 44.1861 5.0782 44.8873C5.0782 45.5884 5.64671 46.1568 6.34776 46.1568H15.3826C16.6281 49.4514 18.5744 52.5393 21.2225 55.1874C25.4051 59.37 30.9449 61.9932 36.8212 62.5738C37.6598 62.6565 38.4991 62.6975 39.3373 62.6975C44.2913 62.6975 49.1824 61.2638 53.3326 58.5612C53.9201 58.1786 54.0863 57.3921 53.7037 56.8045C53.321 56.217 52.5345 56.0508 51.947 56.4334C42.8625 62.3492 30.696 61.0701 23.0179 53.392C14.0089 44.383 14.0089 29.7244 23.0179 20.7153C32.0267 11.7064 46.6853 11.7064 55.6944 20.7153C63.3624 28.3833 64.6485 40.5394 58.7523 49.6195C58.3704 50.2076 58.5376 50.9939 59.1255 51.3757C59.7138 51.7576 60.5 51.5904 60.8817 51.0023C64.032 46.1507 65.4501 40.2911 64.8747 34.5026ZM32.9892 4.6195C32.9892 3.63941 33.7864 2.84213 34.7665 2.84213H43.9073C44.8874 2.84213 45.6847 3.63941 45.6847 4.6195C45.6847 5.5996 44.8874 6.39687 43.9073 6.39687H43.6795H34.9942H34.7665C33.7864 6.39687 32.9892 5.59947 32.9892 4.6195ZM36.2637 11.6062V8.93598H42.41V11.6017C40.3691 11.3589 38.3043 11.3604 36.2637 11.6062Z" fill="black"/>
<path d="M56.5928 53.0197C56.2576 53.0197 55.9313 53.1556 55.6953 53.3917C55.4579 53.6278 55.3232 53.9554 55.3232 54.2892C55.3232 54.6231 55.4579 54.9507 55.6953 55.1868C55.9313 55.4242 56.2577 55.5588 56.5928 55.5588C56.9267 55.5588 57.2529 55.4242 57.4903 55.1868C57.7265 54.9507 57.8623 54.6231 57.8623 54.2892C57.8623 53.9554 57.7266 53.6278 57.4903 53.3917C57.2529 53.1556 56.9265 53.0197 56.5928 53.0197Z" fill="black"/>
<path d="M39.3565 17.3588C28.497 17.3588 19.6621 26.1936 19.6621 37.0532C19.6621 47.9129 28.497 56.7477 39.3565 56.7477C50.216 56.7477 59.0509 47.9129 59.0509 37.0532C59.0509 26.1936 50.216 17.3588 39.3565 17.3588ZM39.3565 54.2086C29.897 54.2086 22.2012 46.5127 22.2012 37.0532C22.2012 27.5938 29.897 19.8979 39.3565 19.8979C48.8161 19.8979 56.5118 27.5938 56.5118 37.0532C56.5118 46.5127 48.8161 54.2086 39.3565 54.2086Z" fill="black"/>
<path d="M47.3867 27.2271L41.0986 33.5151C40.5727 33.2551 39.9812 33.1082 39.356 33.1082C38.7306 33.1082 38.1392 33.2551 37.6134 33.5151L34.7992 30.7009C34.3033 30.2051 33.4997 30.2051 33.0037 30.7009C32.5079 31.1966 32.5079 32.0005 33.0037 32.4962L35.8179 35.3105C35.5577 35.8363 35.411 36.4278 35.411 37.0531C35.411 39.2283 37.1806 40.9981 39.356 40.9981C41.5314 40.9981 43.301 39.2283 43.301 37.0531C43.301 36.4278 43.1541 35.8363 42.8941 35.3105L48.9976 29.207L49.1821 29.0225C49.6778 28.5267 49.6778 27.7229 49.1821 27.2271C48.6863 26.7313 47.8827 26.7313 47.3867 27.2271ZM39.356 38.4591C38.5808 38.4591 37.9501 37.8284 37.9501 37.0532C37.9501 36.278 38.5808 35.6473 39.356 35.6473C40.1312 35.6473 40.7619 36.278 40.7619 37.0532C40.7619 37.8284 40.1312 38.4591 39.356 38.4591Z" fill="black"/>
<path d="M52.9301 35.7991H51.7539C51.0529 35.7991 50.4844 36.3675 50.4844 37.0687C50.4844 37.7698 51.0529 38.3382 51.7539 38.3382H52.9301C53.6312 38.3382 54.1997 37.7698 54.1997 37.0687C54.1997 36.3675 53.6312 35.7991 52.9301 35.7991Z" fill="black"/>
<path d="M26.9583 35.7683H25.7822C25.0812 35.7683 24.5127 36.3367 24.5127 37.0379C24.5127 37.739 25.0812 38.3074 25.7822 38.3074H26.9583C27.6594 38.3074 28.2279 37.739 28.2279 37.0379C28.2279 36.3367 27.6594 35.7683 26.9583 35.7683Z" fill="black"/>
<path d="M39.3721 25.9249C40.0731 25.9249 40.6416 25.3565 40.6416 24.6554V23.4793C40.6416 22.7781 40.0731 22.2097 39.3721 22.2097C38.671 22.2097 38.1025 22.7781 38.1025 23.4793V24.6554C38.1025 25.3565 38.671 25.9249 39.3721 25.9249Z" fill="black"/>
<path d="M39.3408 48.1818C38.6398 48.1818 38.0713 48.7501 38.0713 49.4513V50.6274C38.0713 51.3285 38.6398 51.8969 39.3408 51.8969C40.0419 51.8969 40.6104 51.3285 40.6104 50.6274V49.4513C40.6104 48.7501 40.0419 48.1818 39.3408 48.1818Z" fill="black"/>
<path d="M1.26953 43.6173C0.935645 43.6173 0.608105 43.7532 0.371973 43.9893C0.13584 44.2254 0 44.553 0 44.8869C0 45.222 0.135713 45.5483 0.371973 45.7844C0.608232 46.0206 0.935645 46.1564 1.26953 46.1564C1.60342 46.1564 1.93096 46.0206 2.16696 45.7844C2.4031 45.5483 2.53906 45.2208 2.53906 44.8869C2.53906 44.553 2.40322 44.2254 2.16696 43.9893C1.93096 43.7532 1.60342 43.6173 1.26953 43.6173Z" fill="black"/>
</svg>
