<svg width="46" height="16" viewBox="0 0 46 16" fill="none" xmlns="http://www.w3.org/2000/svg">
<g clip-path="url(#clip0)">
<path fill-rule="evenodd" clip-rule="evenodd" d="M46 8C46 8.55228 45.5523 9 45 9L1 9C0.447716 9 -6.78526e-08 8.55228 -4.37115e-08 8C-1.95703e-08 7.44771 0.447716 7 1 7L45 7C45.5523 7 46 7.44772 46 8Z" fill="black"/>
<path fill-rule="evenodd" clip-rule="evenodd" d="M8.70711 0.292893C9.09763 0.683418 9.09763 1.31658 8.70711 1.70711L2.41421 8L8.70711 14.2929C9.09763 14.6834 9.09763 15.3166 8.70711 15.7071C8.31658 16.0976 7.68342 16.0976 7.29289 15.7071L0.292893 8.70711C-0.0976318 8.31658 -0.0976318 7.68342 0.292893 7.29289L7.29289 0.292893C7.68342 -0.0976312 8.31658 -0.0976311 8.70711 0.292893Z" fill="black"/>
</g>
<defs>
<clipPath id="clip0">
<rect width="16" height="46" fill="white" transform="translate(46) rotate(90)"/>
</clipPath>
</defs>
</svg>
