<svg width="32" height="32" viewBox="0 0 32 32" fill="none" xmlns="http://www.w3.org/2000/svg">
<path d="M13.5056 19.0513L13.2504 22.8749C13.6254 22.8749 13.7911 22.7034 14.0004 22.4999L15.8021 20.748L19.5504 23.5173C20.2402 23.8979 20.7381 23.7009 20.9099 22.8769L23.3705 11.2815C23.6224 10.2715 22.9855 9.81337 22.3256 10.113L7.87684 15.6843C6.89058 16.0799 6.89633 16.6302 7.69706 16.8753L11.4049 18.0326L19.9891 12.617C20.3943 12.3713 20.7662 12.5034 20.461 12.7743L13.5054 19.0512L13.5056 19.0513Z" fill="black"/>
<path fill-rule="evenodd" clip-rule="evenodd" d="M0.0976513 17.7778C0.0331259 17.1941 0 16.6009 0 16C0 7.16344 7.16344 0 16 0C24.8366 0 32 7.16344 32 16C32 16.6009 31.9669 17.1941 31.9023 17.7778H29.8882C29.962 17.1956 30 16.6022 30 16C30 8.26801 23.732 2 16 2C8.26801 2 2 8.26801 2 16C2 16.6022 2.03803 17.1956 2.11181 17.7778H0.0976513Z" fill="black"/>
<path fill-rule="evenodd" clip-rule="evenodd" d="M0.910156 21.3333C3.10662 27.5476 9.03323 31.9999 15.9997 31.9999C22.9662 31.9999 28.8928 27.5476 31.0893 21.3333H28.948C26.8506 26.4198 21.8433 29.9999 15.9997 29.9999C10.1562 29.9999 5.14881 26.4198 3.05143 21.3333H0.910156Z" fill="#F6ED08"/>
</svg>
